<svg version="1.1" id="Layer_1" xmlns="http://www.w3.org/2000/svg" xmlns:xlink="http://www.w3.org/1999/xlink" x="0px" y="0px"
	 width="100%" viewBox="0 0 405 414" enable-background="new 0 0 405 414" xml:space="preserve">
<path fill="#F7F6F4" opacity="1.000000" stroke="none" 
	d="
M1.000000,152.000000 
	C1.000000,101.348640 1.000000,51.197285 1.000000,1.022964 
	C135.943481,1.022964 270.886993,1.022964 405.915222,1.022964 
	C405.915222,138.901337 405.915222,276.802734 405.915222,414.852051 
	C271.000122,414.852051 136.000076,414.852051 1.000000,414.852051 
	C1.000000,327.446411 1.000000,239.973206 1.000000,152.000000 
M144.858047,228.260574 
	C145.003403,227.920761 145.148758,227.580933 145.107971,227.190536 
	C145.107971,227.190536 145.265335,227.302094 145.862244,227.264496 
	C146.006119,226.924042 146.149994,226.583572 146.097046,226.188843 
	C146.097046,226.188843 146.267410,226.301361 146.864487,226.266953 
	C147.007767,225.926010 147.151047,225.585068 147.093918,225.179123 
	C147.093918,225.179123 147.266342,225.300201 147.862183,225.266174 
	C148.006744,224.924759 148.151306,224.583328 148.112701,224.180557 
	C148.112701,224.180557 148.263138,224.301727 148.856918,224.260803 
	C149.002808,223.921600 149.148697,223.582397 149.100983,223.186539 
	C149.100983,223.186539 149.266495,223.301865 149.858902,223.259003 
	C150.004456,222.920639 150.150024,222.582260 150.184052,222.277695 
	C150.184052,222.277695 150.271698,222.354477 150.867096,222.317795 
	C151.274643,221.887482 151.682190,221.457169 152.631302,220.805908 
	C153.371735,220.187729 154.112167,219.569565 155.585938,218.907379 
	C160.775955,214.931320 160.985596,209.839172 156.033585,207.008347 
	C156.033585,207.008347 156.021698,206.949280 155.912704,206.217178 
	C151.488159,199.119156 146.861450,204.555222 141.995728,206.457596 
	C141.995728,195.370163 141.995728,184.740097 142.922119,173.952850 
	C154.950180,174.012787 166.978241,174.072739 179.093597,174.692856 
	C179.410599,174.986282 179.727585,175.279724 180.044571,175.573166 
	C180.361038,175.092331 180.677490,174.611496 181.784225,173.995819 
	C182.853058,173.990936 183.921906,173.986038 185.437744,174.506317 
	C186.624786,174.006241 187.811829,173.506165 189.175903,172.793854 
	C189.175903,172.793854 189.441193,172.871307 190.261002,172.920074 
	C191.152802,172.221268 192.044601,171.522446 192.991028,170.434265 
	C192.991028,170.434265 193.125290,170.064758 193.043549,170.035370 
	C193.043549,170.035370 193.027786,170.120789 193.535645,169.919189 
	C193.734863,169.622421 193.934082,169.325638 194.041977,169.049774 
	C194.041977,169.049774 194.078232,169.136185 194.552841,168.914017 
	C194.943329,168.579910 195.333817,168.245804 196.477875,167.871552 
	C200.373749,164.107224 201.394516,156.858337 198.627426,150.099777 
	C198.708557,147.746689 198.789673,145.393600 199.445801,142.587570 
	C199.257965,141.046432 199.070129,139.505295 198.654877,137.139832 
	C198.725006,135.440002 198.795135,133.740158 199.442993,131.587875 
	C199.250259,130.044815 199.057526,128.501755 198.631454,126.189125 
	C198.706665,125.129028 198.781891,124.068932 199.465714,122.527237 
	C199.859497,119.306725 201.957794,118.944183 204.745239,118.953209 
	C229.788101,119.034355 254.831467,119.033188 279.874146,118.926712 
	C281.581329,118.919456 283.284088,117.867622 285.665955,117.214516 
	C286.105286,117.333824 286.544617,117.453133 286.930603,117.829033 
	C286.930603,117.829033 286.976715,118.087029 287.065979,118.660690 
	C287.722168,118.748695 288.378387,118.836693 289.673798,119.049782 
	C290.575836,120.368423 291.477875,121.687065 292.397461,123.769501 
	C292.450836,124.515640 292.504181,125.261772 291.856323,126.309746 
	C291.570496,128.213852 291.037231,130.117691 291.035156,132.022125 
	C290.988159,175.115265 291.015350,218.208511 290.957672,261.301636 
	C290.954407,263.748993 290.344940,266.195587 289.439819,268.862823 
	C287.959808,269.523804 286.479797,270.184784 284.868042,270.202789 
	C282.253326,267.639099 281.630829,269.757935 280.480194,272.208923 
	C279.407257,272.839142 278.334290,273.469360 276.535278,274.099854 
	C274.064758,276.827118 271.594238,279.554352 269.007782,282.820923 
	C268.915314,283.174408 268.822845,283.527924 268.861481,283.956757 
	C268.861481,283.956757 268.915710,283.815643 268.351593,283.939056 
	C268.190582,284.281799 268.029602,284.624542 267.955688,284.957062 
	C267.955688,284.957062 267.929596,284.873352 267.477783,285.160095 
	C267.051422,285.465027 266.625061,285.769989 265.460663,286.140503 
	C264.347565,290.108704 263.234436,294.076904 262.144806,298.707001 
	C262.052704,299.137756 261.960602,299.568542 261.190277,300.147461 
	C259.765472,301.108856 258.340668,302.070251 256.488892,302.912994 
	C256.488892,302.912994 256.081940,302.737549 255.824570,302.184387 
	C254.627213,301.101868 253.429855,300.019318 251.945496,298.455200 
	C251.646271,298.238403 251.347046,298.021606 250.799149,297.267548 
	C249.914017,296.496826 249.028885,295.726135 247.832291,294.416321 
	C247.307953,294.164764 246.783615,293.913208 246.133179,293.738525 
	C246.133179,293.738525 246.280869,293.738159 246.282639,293.112976 
	C245.931442,292.987946 245.580246,292.862915 245.205643,292.973724 
	C245.205643,292.973724 245.268707,292.745209 245.315521,292.122864 
	C244.956390,291.990509 244.597275,291.858154 244.180283,291.970337 
	C244.180283,291.970337 244.280167,291.739746 244.284668,291.116699 
	C243.933289,290.989258 243.581909,290.861847 243.207794,290.967896 
	C243.207794,290.967896 243.272217,290.742340 243.305801,290.114502 
	C242.948257,289.987579 242.590714,289.860657 242.204712,289.974426 
	C242.204712,289.974426 242.272903,289.741821 242.305954,289.114777 
	C241.948807,288.987671 241.591660,288.860565 241.193054,288.981415 
	C241.193054,288.981415 241.272751,288.742950 241.306946,288.123077 
	C240.950378,287.990662 240.593796,287.858276 240.174896,287.967041 
	C240.174896,287.967041 240.280167,287.741272 240.285477,287.126190 
	C239.934998,286.993317 239.584518,286.860443 239.196533,286.956909 
	C239.196533,286.956909 239.280304,286.740112 239.285645,286.124512 
	C238.935059,285.992706 238.584488,285.860901 238.204514,285.958740 
	C238.204514,285.958740 238.279297,285.739594 238.288757,285.125549 
	C237.937973,284.992371 237.587189,284.859192 237.046509,284.881470 
	C237.046509,284.881470 237.263428,284.766693 237.275253,284.133575 
	C236.911697,283.979248 236.548141,283.824921 236.139526,283.774048 
	C236.139526,283.774048 236.250229,283.752228 236.002792,283.144318 
	C234.675446,282.476196 233.348083,281.808105 231.357132,280.993835 
	C228.146255,281.418823 225.091125,281.775879 223.878372,285.718048 
	C222.609573,289.842529 225.372360,291.729828 227.598495,294.160309 
	C228.978531,295.667023 229.945847,297.551758 230.149384,299.175568 
	C219.749619,299.175903 209.349854,299.176208 198.871384,298.965820 
	C198.871384,298.965820 198.662537,299.049347 198.589371,298.107269 
	C198.512497,284.840668 198.576294,271.570679 198.255814,258.309967 
	C198.179596,255.155426 196.817719,252.031982 196.102982,248.962280 
	C196.102982,248.962280 196.163422,248.898361 196.002274,248.316803 
	C195.312622,247.962997 194.622955,247.609192 193.919174,247.041595 
	C193.919174,247.041595 193.707977,247.077789 193.450653,246.436493 
	C189.627106,244.982529 185.815460,242.304001 181.978149,242.266693 
	C148.731415,241.943420 115.479568,242.017548 82.230850,242.227005 
	C78.971924,242.247528 75.723709,243.968994 72.093925,245.361954 
	C71.408401,246.298843 70.722885,247.235748 69.327072,248.324661 
	C68.240822,252.108749 66.242500,255.885513 66.211990,259.678101 
	C65.958138,291.238403 65.984032,322.802216 66.191460,354.363190 
	C66.212891,357.622681 67.969109,360.870789 68.945450,364.046326 
	C68.945450,364.046326 68.863647,364.046936 69.028305,364.577728 
	C69.323120,364.782898 69.617943,364.988098 69.913475,365.068237 
	C69.913475,365.068237 69.791618,365.096222 69.983650,365.623810 
	C70.297157,365.813568 70.610657,366.003357 70.908279,366.093536 
	C70.908279,366.093536 70.819344,366.141113 71.145576,366.706146 
	C72.112373,367.080383 73.079170,367.454620 73.966263,368.025299 
	C73.966263,368.025299 73.930481,368.234283 73.992867,368.914825 
	C75.010857,369.241028 76.028847,369.567261 77.785629,369.854523 
	C78.521622,369.838135 79.257622,369.821716 80.504074,369.963867 
	C80.672279,370.022583 80.840492,370.081299 81.225227,370.903809 
	C82.416466,371.268738 83.607124,371.950287 84.799011,371.952423 
	C116.872498,372.010437 148.946182,372.021240 181.019440,371.919006 
	C182.345169,371.914795 183.667160,370.741272 185.475876,369.886078 
	C185.636169,369.807709 185.796478,369.729340 186.679642,369.691742 
	C190.885040,368.169647 195.077759,366.630829 197.138184,361.438629 
	C197.441193,360.958771 197.744186,360.478882 198.756775,359.862518 
	C202.799911,356.557251 200.364441,353.236755 198.570633,349.009827 
	C198.675034,338.672760 198.779434,328.335724 199.729172,317.898834 
	C208.157776,317.441223 216.586380,316.983612 225.459198,316.501862 
	C224.132080,319.458954 223.109970,321.352631 222.419174,323.360260 
	C221.202347,326.896637 223.379822,332.333374 226.862106,333.244171 
	C230.012085,334.067993 234.025299,336.158997 236.377106,330.534973 
	C238.303345,328.705963 240.229599,326.876953 242.857208,325.001465 
	C243.585419,324.045410 244.313644,323.089355 245.338623,321.529480 
	C249.509308,317.333893 253.679993,313.138275 258.555298,309.080231 
	C259.675873,310.386810 260.796417,311.693420 262.150391,313.603363 
	C262.198242,314.029999 262.246094,314.456665 261.780334,315.173798 
	C262.138519,315.782867 262.496704,316.391937 263.087311,317.597778 
	C263.195526,318.010071 263.303741,318.422363 262.832184,319.159760 
	C263.517761,320.440491 264.203339,321.721252 265.199127,323.409668 
	C265.446533,323.642853 265.693970,323.876038 265.967896,324.031372 
	C265.967896,324.031372 265.888428,324.052368 265.975281,324.586853 
	C266.025757,324.943176 266.076202,325.299530 266.069183,326.422638 
	C266.738586,327.273010 267.407990,328.123352 268.467468,329.095276 
	C268.467468,329.095276 268.854828,329.225098 268.909973,329.102203 
	C268.909973,329.102203 268.777161,329.079865 268.888855,329.593384 
	C268.989532,329.926849 269.090210,330.260345 269.136108,331.330292 
	C271.846313,333.853668 274.556519,336.377075 277.832550,339.073914 
	C278.521637,339.439545 279.210693,339.805206 279.946045,340.088379 
	C279.946045,340.088379 279.852234,340.100494 280.253448,340.665741 
	C282.151489,341.657837 283.965851,342.881714 285.961884,343.602478 
	C295.277679,346.966492 304.668671,348.615021 314.034943,344.065918 
	C314.034943,344.065918 314.031464,344.173737 314.803925,344.098022 
	C317.220093,342.736664 319.636261,341.375336 322.751099,339.907074 
	C328.822266,338.024567 331.778595,332.797394 335.751129,327.964905 
	C335.968781,327.706360 336.093384,327.408844 336.044006,327.034027 
	C336.044006,327.034027 336.067963,327.120239 336.557465,326.748871 
	C336.761780,326.177551 336.966064,325.606232 337.067505,325.039337 
	C337.067505,325.039337 337.092590,325.139191 337.624268,324.733978 
	C338.424988,323.155548 339.225677,321.577148 340.644806,319.907776 
	C340.628784,319.213348 340.612762,318.518921 340.700958,317.193573 
	C340.847809,316.793915 340.994690,316.394226 341.752319,315.884033 
	C341.663910,315.187317 341.575500,314.490570 341.571350,313.026825 
	C341.755310,312.016449 341.939270,311.006073 342.855377,309.803497 
	C344.368317,307.041321 345.441467,304.319855 341.948273,301.255310 
	C341.790405,300.240234 341.632538,299.225189 342.044861,297.934509 
	C341.735962,297.291016 341.427063,296.647522 340.831390,295.537933 
	C340.582581,295.282898 340.333801,295.027863 340.135010,294.179291 
	C340.095093,293.784485 340.055176,293.389648 340.531036,292.546387 
	C340.606201,291.910278 340.944885,291.154053 340.717712,290.655762 
	C335.921600,280.135773 328.886414,271.616791 317.511139,268.194244 
	C312.844208,266.790131 311.880280,264.743713 311.900391,260.285736 
	C312.071442,222.340729 312.010590,184.394562 311.911163,146.449020 
	C311.908173,145.298508 310.725189,144.151077 309.938995,142.339340 
	C309.991058,141.891724 310.043121,141.444107 310.856110,140.793320 
	C312.217865,137.076096 313.636200,133.354675 309.883514,129.125122 
	C309.830872,126.458275 309.778229,123.791420 310.343140,120.674973 
	C311.069000,115.405571 308.313904,109.668335 303.312988,106.851219 
	C302.848328,106.313423 302.383698,105.775635 301.882202,104.518593 
	C297.834839,99.268509 292.042114,98.056465 285.960358,98.038261 
	C256.966522,97.951508 227.972275,97.998299 198.827515,97.132637 
	C198.882294,95.089760 198.937073,93.046883 199.576477,90.406921 
	C199.383118,83.936913 199.189758,77.466896 198.831558,70.120842 
	C198.885971,67.748123 198.940384,65.375397 199.555374,62.454918 
	C199.067642,59.971115 198.579895,57.487316 197.709671,54.430168 
	C195.908173,52.260250 194.106659,50.090336 192.082077,47.537819 
	C192.082077,47.537819 191.964050,47.110985 191.896591,46.429935 
	C190.558182,46.042698 189.219757,45.655460 187.153076,45.198433 
	C186.432755,45.077694 185.712418,44.956955 184.770218,44.076466 
	C183.742416,43.719013 182.715134,43.050831 181.686752,43.049156 
	C148.492035,42.995090 115.296753,42.933090 82.103241,43.141304 
	C79.410049,43.158199 76.728882,45.091141 73.686279,46.661034 
	C72.493378,47.783215 71.300476,48.905396 69.641472,50.217194 
	C69.429214,50.470287 69.216949,50.723385 68.445671,51.301186 
	C67.932709,52.202419 67.419746,53.103649 66.337303,54.080524 
	C66.197922,54.995270 66.058548,55.910011 65.970421,57.449287 
	C65.919823,57.651939 65.869225,57.854595 65.058113,58.253540 
	C64.707626,59.116997 64.052170,59.979942 64.050705,60.843990 
	C63.996830,92.731514 63.983810,124.619202 64.080605,156.506516 
	C64.084137,157.671661 65.245361,158.833298 66.062454,160.688721 
	C66.166969,161.399918 66.271484,162.111115 65.775124,163.219193 
	C65.234848,165.648010 65.356842,167.679474 68.917999,168.168808 
	C69.264107,168.472366 69.610214,168.775909 69.992561,169.011215 
	C69.992561,169.011215 69.922180,169.043137 70.185699,169.565796 
	C70.776115,170.074768 71.366539,170.583740 72.097946,171.626266 
	C72.408348,171.809921 72.718758,171.993576 73.290657,172.553223 
	C73.518517,172.770065 73.786667,172.909363 74.565399,173.036148 
	C74.565399,173.036148 75.025078,173.154816 75.287186,173.539886 
	C75.516823,173.763077 75.788612,173.906326 76.561752,174.015167 
	C76.561752,174.015167 77.017960,174.084625 77.335045,174.502579 
	C77.892090,174.324570 78.449142,174.146561 79.921516,173.853119 
	C83.616982,173.941086 87.312439,174.029037 91.093102,174.680130 
	C91.409584,174.976562 91.726067,175.272980 92.042557,175.569412 
	C92.358727,175.086243 92.674896,174.603058 93.917030,173.957352 
	C100.946960,174.012283 107.976891,174.067200 115.175095,174.823685 
	C117.548447,175.306732 119.921799,175.789795 121.286690,176.067581 
	C122.286896,178.694901 123.105598,180.845444 124.094452,183.738892 
	C124.036392,184.494186 123.978333,185.249496 123.249802,186.140808 
	C121.425964,187.784256 121.339890,189.123749 124.095016,190.919113 
	C124.048790,196.612564 124.002563,202.306000 123.261177,207.916107 
	C121.844780,206.824356 120.537628,205.532684 118.987518,204.685593 
	C116.371010,203.255753 113.571411,201.063080 110.379570,205.237946 
	C105.858078,209.254211 105.423836,214.439835 109.949829,218.925659 
	C116.414368,225.332870 123.248665,231.373703 130.079620,237.395660 
	C130.898132,238.117218 132.680771,237.745148 134.602707,237.892059 
	C135.171982,237.433914 135.741257,236.975754 136.320755,236.446716 
	C136.320755,236.446716 136.302170,236.377563 136.896698,236.345810 
	C137.301117,235.918533 137.705536,235.491272 138.027298,235.027695 
	C138.027298,235.027695 138.064499,235.109940 138.599487,234.822937 
	C138.856247,234.313416 139.112991,233.803909 139.319138,233.196198 
	C139.319138,233.196198 139.275177,233.297546 139.872009,233.279541 
	C140.014221,232.934555 140.156448,232.589554 140.115356,232.172638 
	C140.115356,232.172638 140.263306,232.302582 140.856216,232.258057 
	C141.002518,231.919266 141.148819,231.580475 141.110809,231.181320 
	C141.110809,231.181320 141.263077,231.301437 141.856796,231.257797 
	C142.003021,230.918701 142.149246,230.579590 142.117447,230.180038 
	C142.117447,230.180038 142.261169,230.301224 142.856094,230.259109 
	C143.002411,229.919250 143.148727,229.579391 143.119522,229.183578 
	C143.119522,229.183578 143.261047,229.301514 143.856232,229.259445 
	C144.002472,228.919464 144.148712,228.579483 144.119354,228.187485 
	C144.119354,228.187485 144.262054,228.302246 144.858047,228.260574 
z"/>
<path fill="#37A49A" opacity="1.000000" stroke="none" 
	d="
M192.305161,47.920418 
	C194.106659,50.090336 195.908173,52.260250 197.897614,55.114052 
	C198.388611,58.199520 198.691696,60.601101 198.994781,63.002678 
	C198.940384,65.375397 198.885971,67.748123 198.836121,71.022263 
	C198.891083,78.283791 198.941467,84.643898 198.991852,91.004005 
	C198.937073,93.046883 198.882294,95.089760 198.812103,97.905235 
	C198.860306,99.136108 198.923904,99.594391 199.090515,100.442749 
	C200.535400,101.220833 201.876511,101.944237 203.219284,101.947372 
	C230.803040,102.011803 258.387054,102.019585 285.970581,101.915321 
	C287.307465,101.910271 288.640076,100.777199 290.336060,100.130890 
	C294.437988,101.807533 298.178497,103.522682 301.919037,105.237839 
	C302.383698,105.775635 302.848328,106.313423 303.675262,107.258865 
	C304.718994,108.938713 305.400421,110.210922 306.081360,111.857910 
	C306.467987,112.800476 306.855072,113.368263 307.264679,113.875931 
	C307.287201,113.815804 307.411438,113.783165 307.284851,114.208488 
	C307.437683,120.088722 307.917480,125.542130 307.958557,130.998840 
	C308.076355,146.659988 308.016479,162.322464 308.015808,178.454559 
	C308.004181,206.923248 307.958557,234.922012 308.095642,262.919891 
	C308.105499,264.937897 309.447632,266.949371 310.567444,268.965088 
	C314.511200,270.018341 318.355560,270.515869 321.547119,272.229340 
	C330.149384,276.847595 336.117920,284.061951 340.015289,292.994843 
	C340.055176,293.389648 340.095093,293.784485 340.010986,294.797913 
	C339.929474,299.095337 340.331940,302.813477 339.934509,306.444092 
	C339.249268,312.704498 338.066559,318.910400 337.092590,325.139191 
	C337.092590,325.139191 337.067505,325.039337 336.826508,325.176880 
	C336.412994,325.916382 336.240479,326.518311 336.067963,327.120239 
	C336.067963,327.120239 336.044006,327.034027 335.824280,327.031342 
	C335.510223,327.419159 335.415894,327.809692 335.321594,328.200195 
	C331.778595,332.797394 328.822266,338.024567 322.042725,339.997314 
	C318.900085,341.449585 316.465759,342.811676 314.031464,344.173737 
	C314.031464,344.173737 314.034943,344.065918 313.646301,344.039001 
	C302.606842,345.463776 292.141113,345.460327 282.280304,340.264862 
	C281.624207,339.919189 280.668549,340.142059 279.852234,340.100525 
	C279.852234,340.100494 279.946045,340.088379 279.933105,339.789001 
	C279.043762,339.004700 278.167358,338.519775 277.124054,337.730011 
	C274.619995,335.153015 272.282806,332.880890 269.906616,330.342255 
	C269.504150,329.743805 269.140656,329.411835 268.777161,329.079865 
	C268.777161,329.079865 268.909973,329.102203 268.912903,328.821045 
	C268.524536,328.051880 268.133270,327.563812 267.729767,327.132568 
	C267.717529,327.189392 267.607117,327.225769 267.702820,326.863037 
	C267.161835,325.684296 266.525146,324.868347 265.888428,324.052368 
	C265.888428,324.052368 265.967896,324.031372 265.969574,323.706299 
	C265.566101,322.607544 265.160980,321.833862 264.748138,321.116150 
	C264.740448,321.172150 264.633820,321.209747 264.745697,320.783508 
	C264.678345,318.744415 264.337067,317.130463 264.348175,315.518921 
	C264.393768,308.887970 264.200653,302.226501 264.796021,295.639587 
	C265.126221,291.986298 266.839630,288.457977 267.929596,284.873352 
	C267.929596,284.873352 267.955688,284.957062 268.172180,284.861511 
	C268.564362,284.449158 268.740021,284.132416 268.915710,283.815643 
	C268.915710,283.815643 268.861481,283.956757 269.068726,283.860565 
	C269.500122,283.292084 269.724274,282.819824 270.254150,282.174774 
	C272.793701,279.367889 275.027527,276.733734 277.261353,274.099579 
	C278.334290,273.469360 279.407257,272.839142 281.095459,272.072906 
	C282.807098,271.573181 283.903442,271.209473 284.999786,270.845764 
	C286.479797,270.184784 287.959808,269.523804 290.010620,268.903503 
	C291.084717,268.661774 291.588043,268.379364 292.292297,268.046448 
	C292.493164,267.995941 292.907349,267.983765 293.224640,267.709290 
	C293.689789,266.628296 293.966736,265.821899 293.967102,265.015350 
	C293.987732,219.108963 293.999817,173.202545 293.917755,127.296318 
	C293.915161,125.865204 292.915009,124.435875 292.379913,123.005714 
	C291.477875,121.687065 290.575836,120.368423 289.222107,118.706352 
	C288.172485,118.270958 287.574615,118.178993 286.976715,118.087029 
	C286.976715,118.087029 286.930603,117.829033 286.751953,117.310165 
	C285.317505,116.527512 284.062073,116.035614 282.805878,116.033531 
	C256.241333,115.989433 229.676651,115.984497 203.112152,116.046677 
	C201.740295,116.049889 200.369995,116.719330 199.008179,117.039154 
	C199.017365,116.999710 199.095703,117.020370 198.706726,117.143921 
	C197.885651,118.725517 197.113052,120.174515 197.074081,121.642998 
	C196.680725,136.462677 196.407486,151.285538 196.079193,166.075439 
	C196.057877,166.043381 196.130951,166.019318 195.890579,166.106628 
	C195.461334,166.461655 195.272446,166.729370 194.806564,167.160248 
	C194.379120,167.927643 194.228668,168.531921 194.078217,169.136185 
	C194.078232,169.136185 194.041977,169.049774 193.833405,169.141083 
	C193.425812,169.528534 193.226791,169.824661 193.027771,170.120789 
	C193.027786,170.120789 193.043549,170.035370 192.751709,170.048706 
	C192.010635,170.470474 191.561371,170.878891 191.160858,171.321106 
	C191.209625,171.354935 191.222229,171.472931 190.809021,171.329987 
	C186.130707,171.459854 181.867569,171.924255 177.600128,171.968048 
	C166.672241,172.080200 155.741104,171.921326 144.814896,172.097015 
	C143.205261,172.122894 141.615433,173.380035 140.033188,174.531677 
	C139.998932,185.347168 139.947937,195.698456 139.645065,206.247711 
	C139.546387,207.607056 139.699554,208.768417 140.008514,210.214966 
	C141.174652,210.103241 142.535172,209.994598 143.138077,209.262253 
	C146.830185,204.777542 151.110611,204.281509 156.021698,206.949280 
	C156.021698,206.949280 156.033585,207.008347 156.219452,207.355133 
	C157.757080,211.709747 157.032852,215.431046 154.852600,218.951385 
	C154.112167,219.569565 153.371735,220.187729 152.035263,220.935913 
	C151.050049,221.495453 150.660873,221.924957 150.271698,222.354477 
	C150.271698,222.354477 150.184052,222.277695 149.947693,222.290131 
	C149.563065,222.635681 149.414780,222.968765 149.266495,223.301865 
	C149.266495,223.301865 149.100983,223.186539 148.905884,223.244568 
	C148.561569,223.635635 148.412354,223.968689 148.263138,224.301727 
	C148.263138,224.301727 148.112701,224.180557 147.912643,224.241730 
	C147.563843,224.635315 147.415085,224.967758 147.266327,225.300201 
	C147.266342,225.300201 147.093918,225.179123 146.902496,225.241241 
	C146.563171,225.636032 146.415283,225.968689 146.267410,226.301361 
	C146.267410,226.301361 146.097046,226.188843 145.903870,226.246292 
	C145.562225,226.636520 145.413773,226.969299 145.265335,227.302094 
	C145.265335,227.302094 145.107971,227.190536 144.909485,227.247223 
	C144.561356,227.636688 144.411713,227.969467 144.262054,228.302246 
	C144.262054,228.302246 144.119354,228.187485 143.915604,228.245544 
	C143.561584,228.636246 143.411316,228.968872 143.261047,229.301514 
	C143.261047,229.301514 143.119522,229.183578 142.915710,229.243484 
	C142.561676,229.636002 142.411423,229.968613 142.261169,230.301224 
	C142.261169,230.301224 142.117447,230.180038 141.914642,230.241562 
	C141.562241,230.635864 141.412659,230.968643 141.263062,231.301437 
	C141.263077,231.301437 141.110809,231.181320 140.910889,231.242020 
	C140.561752,231.636017 140.412537,231.969299 140.263306,232.302582 
	C140.263306,232.302582 140.115356,232.172638 139.915253,232.237183 
	C139.568481,232.633652 139.421829,232.965607 139.275177,233.297546 
	C139.275177,233.297546 139.319138,233.196198 139.015778,233.280884 
	C138.496429,233.947021 138.280457,234.528473 138.064499,235.109940 
	C138.064499,235.109940 138.027298,235.027695 137.738449,235.047318 
	C137.067123,235.503815 136.684631,235.940674 136.302155,236.377563 
	C136.302170,236.377563 136.320755,236.446716 136.000519,236.333679 
	C135.125687,236.773758 134.571106,237.326874 134.016541,237.880005 
	C132.680771,237.745148 130.898132,238.117218 130.079620,237.395660 
	C123.248665,231.373703 116.414368,225.332870 109.949829,218.925659 
	C105.423836,214.439835 105.858078,209.254211 111.095467,205.101578 
	C114.513557,206.127487 117.247116,207.223267 119.905914,208.477524 
	C121.441353,209.201874 122.856140,210.181992 124.685043,210.892914 
	C125.350288,210.192886 125.919014,209.648468 125.922241,209.100708 
	C125.985718,198.359482 126.033867,187.617294 125.909599,176.877319 
	C125.898285,175.898712 124.694641,174.933914 123.926865,173.574875 
	C122.145912,172.792191 120.485771,172.070663 118.819115,172.055298 
	C107.727051,171.953033 96.628731,172.192200 85.542946,171.909103 
	C81.016212,171.793488 76.515656,170.652954 71.830582,169.727081 
	C71.079369,169.331360 70.500778,169.187256 69.922180,169.043137 
	C69.922180,169.043137 69.992561,169.011215 69.988190,168.641357 
	C69.322212,163.641769 68.754112,158.995407 67.935379,154.393631 
	C67.722122,153.195023 66.727310,152.135468 66.020828,150.547256 
	C65.998451,138.710236 66.046715,127.337982 66.348694,115.759010 
	C66.431076,114.378853 66.259727,113.205421 66.012459,111.566650 
	C65.985939,95.390984 66.035339,79.680649 66.330933,63.794815 
	C66.413124,62.756485 66.249130,61.893658 66.014336,60.691437 
	C65.991257,59.894619 66.038979,59.437191 66.246490,58.897575 
	C66.467247,58.713135 66.604706,58.566902 66.575661,58.516396 
	C66.462067,58.318832 66.295860,58.151516 66.074677,58.025902 
	C66.000160,58.078842 65.818619,58.057255 65.818619,58.057255 
	C65.869225,57.854595 65.919823,57.651939 66.121628,56.883823 
	C66.484146,55.547199 66.695465,54.776039 66.906784,54.004883 
	C67.419746,53.103649 67.932709,52.202419 69.001373,51.131615 
	C69.740570,50.650555 69.924072,50.339069 70.107574,50.027580 
	C71.300476,48.905396 72.493378,47.783215 74.110519,46.367783 
	C74.534760,46.074532 75.025772,46.145889 75.333420,46.423023 
	C76.291656,46.801060 76.942215,46.990032 77.592850,46.990253 
	C113.975899,47.002708 150.358963,47.002865 186.742004,46.981789 
	C187.891800,46.981125 189.041458,46.745476 190.179398,46.667892 
	C190.167618,46.716412 190.071075,46.741959 190.210892,47.063503 
	C191.002197,47.563503 191.653671,47.741962 192.305161,47.920418 
M317.733093,288.668854 
	C317.415741,288.490326 317.098389,288.311798 316.916748,288.144012 
	C316.916748,288.144012 316.867523,288.270935 316.659637,287.644531 
	C316.056244,287.459930 315.452881,287.275360 314.936005,287.092773 
	C314.936005,287.092773 314.906219,287.174011 314.900482,286.438293 
	C308.760071,280.601990 297.095612,279.978882 292.046082,285.106720 
	C292.046082,285.106720 292.158508,285.117950 291.416077,285.040253 
	C290.335571,285.789062 289.255035,286.537872 288.015503,287.198395 
	C288.015503,287.198395 288.092712,287.033722 287.555878,287.350464 
	C287.394897,287.729614 287.233948,288.108765 286.867523,288.923615 
	C286.370636,289.313416 285.873749,289.703217 284.670593,290.086456 
	C284.129425,290.956818 283.588257,291.827209 282.541809,293.012268 
	C282.350189,293.345520 282.158569,293.678741 281.328613,294.324921 
	C276.222900,301.872559 277.095581,309.801575 279.982697,317.780701 
	C280.304779,318.670868 281.586304,319.213898 282.791443,320.072906 
	C282.987305,320.279419 283.074432,320.524597 283.056824,321.478577 
	C283.452271,321.951416 283.847687,322.424225 284.110168,322.926208 
	C284.110168,322.926208 284.115082,322.790161 284.269745,323.336884 
	C284.588318,323.518341 284.906891,323.699799 285.082153,323.820038 
	C285.082153,323.820038 285.173187,323.693542 285.242615,324.242584 
	C285.704224,324.476837 286.165802,324.711090 287.030823,325.550018 
	C291.619202,327.362915 296.136810,330.450806 300.811462,330.710358 
	C309.269287,331.179993 315.649292,325.937622 321.894135,319.815002 
	C325.989471,314.077362 326.865387,307.662262 325.373505,300.972565 
	C324.902924,298.862640 323.301636,297.004852 321.841095,294.448334 
	C320.877899,293.193481 319.914703,291.938599 318.874023,290.125000 
	C318.473907,289.816956 318.073761,289.508911 317.785950,289.086395 
	C317.785950,289.086395 317.879486,289.216705 317.733093,288.668854 
M136.855438,156.951767 
	C139.923889,157.007553 142.992355,157.063354 146.657303,157.686935 
	C156.708572,157.794556 166.759766,157.940643 176.811203,157.960251 
	C178.044174,157.962646 179.278442,157.288132 180.260452,156.421112 
	C180.785339,155.935547 181.310242,155.449997 182.584427,154.662491 
	C183.051407,153.155380 183.920685,151.649536 183.925491,150.140961 
	C184.007401,124.417763 184.009964,98.694122 183.900742,72.971115 
	C183.895142,71.652023 182.728409,70.337860 181.962448,68.345139 
	C182.009415,67.889587 182.056396,67.434029 182.713989,66.917145 
	C182.399582,65.962852 182.085159,65.008568 181.248291,63.764793 
	C180.490311,63.135071 179.732330,62.505344 178.781036,61.105762 
	C177.921280,60.744389 177.062134,60.068806 176.201675,60.067123 
	C146.953400,60.009884 117.704918,59.995018 88.456886,60.094509 
	C87.308495,60.098415 86.164124,61.283039 84.559349,62.194496 
	C83.907463,62.797272 83.255585,63.400047 81.827881,64.421288 
	C81.556641,65.678719 81.050667,66.935791 81.048691,68.193649 
	C81.005531,95.688683 80.994690,123.183868 81.087311,150.678665 
	C81.092163,152.118896 82.067520,153.555832 83.086105,155.177246 
	C83.720184,155.779648 84.354263,156.382050 85.555000,157.594803 
	C90.016068,157.436691 94.477127,157.278580 99.870193,156.952805 
	C107.267471,157.009125 114.664742,157.065460 122.512321,157.633865 
	C123.987946,157.462265 125.463570,157.290680 127.828140,156.952026 
	C130.235580,157.007614 132.643005,157.063187 135.188461,157.448349 
	C135.442184,157.338287 135.695923,157.228226 136.855438,156.951767 
z"/>
<path fill="#5069BA" opacity="1.000000" stroke="none" 
	d="
M242.155853,325.047913 
	C240.229599,326.876953 238.303345,328.705963 235.797485,330.813385 
	C234.587173,331.232880 233.931061,331.304962 233.330017,331.526428 
	C229.960815,332.767944 226.504593,332.112946 225.134995,329.116089 
	C224.113327,326.880554 224.586975,323.386444 225.605270,320.961090 
	C226.557220,318.693756 229.103287,317.095703 230.873077,314.792450 
	C230.186859,313.934753 229.579086,313.104309 228.963074,313.098145 
	C219.763077,313.006409 210.561325,312.975220 201.362289,313.099792 
	C200.562637,313.110626 199.779175,314.316864 198.952118,315.000610 
	C198.916031,315.033417 198.844070,314.967590 198.478973,315.122864 
	C197.742218,316.940033 197.063278,318.599182 197.048447,320.264252 
	C196.948380,331.488708 196.995102,342.714417 196.979874,353.939697 
	C196.976257,356.609100 196.917740,359.278412 196.884460,361.947784 
	C195.077759,366.630829 190.885040,368.169647 186.193970,369.307404 
	C183.988190,368.612946 182.269196,368.040894 180.547806,368.033508 
	C164.740417,367.965851 148.932602,367.997406 133.124924,367.997406 
	C116.485245,367.997375 99.845352,367.960907 83.206413,368.070557 
	C82.131714,368.077606 81.064384,369.201172 79.993622,369.805328 
	C79.257622,369.821716 78.521622,369.838135 77.198929,369.657623 
	C75.718307,369.051910 74.824394,368.643097 73.930481,368.234283 
	C73.930481,368.234283 73.966263,368.025299 73.914909,367.590637 
	C72.848824,366.817657 71.834084,366.479370 70.819351,366.141113 
	C70.819344,366.141113 70.908279,366.093536 70.831421,365.869232 
	C70.433586,365.462006 70.112610,365.279114 69.791626,365.096222 
	C69.791618,365.096222 69.913475,365.068237 69.837357,364.860718 
	C69.462036,364.451141 69.162842,364.249054 68.863647,364.046936 
	C68.863647,364.046936 68.945450,364.046326 68.967941,363.647369 
	C68.664673,357.315948 68.079147,351.384460 68.057457,345.450897 
	C67.955528,317.569275 67.917648,289.686462 68.097191,261.805634 
	C68.126480,257.257355 69.360275,252.716782 70.037354,248.172638 
	C70.722885,247.235748 71.408401,246.298843 72.748581,245.167618 
	C81.170540,244.652496 88.936852,244.086853 96.705353,244.055008 
	C124.446198,243.941315 152.189178,243.869461 179.927734,244.145477 
	C184.530426,244.191269 189.115021,246.054459 193.707977,247.077789 
	C193.707977,247.077789 193.919174,247.041595 194.036102,247.442200 
	C194.823166,248.194656 195.493286,248.546509 196.163422,248.898361 
	C196.163422,248.898361 196.102982,248.962280 196.061279,249.365173 
	C196.345367,254.529236 196.884109,259.287354 196.952881,264.052246 
	C197.098709,274.157013 196.928818,284.266296 197.075241,294.371033 
	C197.097946,295.937805 198.108704,297.490265 198.662537,299.049347 
	C198.662537,299.049347 198.871384,298.965820 199.042389,299.447113 
	C199.578735,300.239868 199.941467,300.820038 200.309769,300.823608 
	C210.274841,300.920044 220.240524,300.972687 230.205719,300.931671 
	C230.505569,300.930450 230.800964,299.846161 231.098434,299.266815 
	C229.945847,297.551758 228.978531,295.667023 227.598495,294.160309 
	C225.372360,291.729828 222.609573,289.842529 223.878372,285.718048 
	C225.091125,281.775879 228.146255,281.418823 231.744843,281.402161 
	C233.505112,282.457733 234.877670,283.104980 236.250229,283.752228 
	C236.250229,283.752228 236.139526,283.774048 236.202545,284.019897 
	C236.598175,284.432709 236.930801,284.599701 237.263428,284.766693 
	C237.263428,284.766693 237.046509,284.881470 237.167725,285.093506 
	C237.619064,285.450226 237.949188,285.594910 238.279297,285.739594 
	C238.279297,285.739594 238.204514,285.958740 238.247223,286.133057 
	C238.620041,286.451660 238.950165,286.595886 239.280304,286.740112 
	C239.280304,286.740112 239.196533,286.956909 239.243240,287.131531 
	C239.620026,287.451202 239.950104,287.596222 240.280167,287.741272 
	C240.280167,287.741272 240.174896,287.967041 240.231720,288.135193 
	C240.616608,288.449890 240.944672,288.596405 241.272751,288.742950 
	C241.272751,288.742950 241.193054,288.981415 241.241119,289.145020 
	C241.617096,289.453003 241.945007,289.597412 242.272903,289.741821 
	C242.272903,289.741821 242.204712,289.974426 242.247040,290.141418 
	C242.616974,290.453064 242.944595,290.597687 243.272217,290.742340 
	C243.272217,290.742340 243.207794,290.967896 243.249298,291.139313 
	C243.620590,291.453735 243.950378,291.596741 244.280167,291.739746 
	C244.280167,291.739746 244.180283,291.970337 244.234253,292.136322 
	C244.615036,292.449951 244.941879,292.597565 245.268707,292.745209 
	C245.268707,292.745209 245.205643,292.973724 245.247986,293.143707 
	C245.620514,293.455170 245.950699,293.596680 246.280869,293.738159 
	C246.280869,293.738159 246.133179,293.738525 246.248642,294.029419 
	C246.957306,294.532043 247.550522,294.743744 248.143738,294.955444 
	C249.028885,295.726135 249.914017,296.496826 251.034470,297.803375 
	C251.590698,298.538391 251.911606,298.737579 252.232513,298.936768 
	C253.429855,300.019318 254.627213,301.101868 255.917694,302.822723 
	C256.621552,304.299957 257.232269,305.138824 257.920227,306.343140 
	C257.948547,307.453278 257.899628,308.197968 257.850677,308.942688 
	C253.679993,313.138275 249.509308,317.333893 244.916458,321.950623 
	C243.714813,323.263855 242.935333,324.155884 242.155853,325.047913 
M81.719315,261.450867 
	C81.489998,262.554321 81.061981,263.657471 81.060417,264.761230 
	C81.021423,292.286377 81.014938,319.811554 81.066742,347.336609 
	C81.069038,348.558716 81.674896,349.779724 82.364281,351.525909 
	C82.936920,352.393768 83.509552,353.261658 84.675896,354.694183 
	C84.995415,354.778107 85.314873,354.935211 85.634460,354.935486 
	C115.813507,354.960999 145.992615,354.993164 176.171463,354.924103 
	C177.443802,354.921143 178.713974,353.969635 180.267242,353.078888 
	C180.759537,352.702911 181.251831,352.326965 182.145874,351.847290 
	C182.262894,351.778137 182.379913,351.708984 182.496948,351.639832 
	C182.355179,351.437073 182.213409,351.234283 181.968704,350.099640 
	C182.029251,345.384705 182.089798,340.669800 182.801468,335.847198 
	C182.585648,334.580200 182.369827,333.313202 181.991547,331.115448 
	C182.037811,322.388672 182.084076,313.661896 182.690887,304.334656 
	C182.501907,298.243774 182.312927,292.152893 181.971619,285.359192 
	C182.022812,284.885284 182.073990,284.411346 182.654694,283.422363 
	C182.477585,281.302063 182.300476,279.181732 181.967606,276.218811 
	C182.020035,274.795654 182.072464,273.372467 182.454926,271.811676 
	C182.344604,271.557922 182.234283,271.304199 181.968445,270.148560 
	C181.965744,267.105835 181.963043,264.063080 182.307297,260.744751 
	C182.012894,260.510223 181.718491,260.275696 181.014206,259.895294 
	C180.671570,259.461975 180.328918,259.028625 179.575500,257.820923 
	C178.486908,257.550934 177.398636,257.046722 176.309662,257.045166 
	C147.120850,257.003021 117.931900,256.993347 88.743294,257.081451 
	C87.537613,257.085083 86.334946,258.087219 84.544868,258.929932 
	C83.854668,259.626404 83.164467,260.322845 81.719315,261.450867 
z"/>
<path fill="#FBFBFA" opacity="1.000000" stroke="none" 
	d="
M340.273163,292.770630 
	C336.117920,284.061951 330.149384,276.847595 321.547119,272.229340 
	C318.355560,270.515869 314.511200,270.018341 310.525635,268.500427 
	C310.064087,264.220001 310.031525,260.405518 310.020569,256.590942 
	C309.945312,230.389542 309.874542,204.188126 309.868164,177.523132 
	C309.986786,165.707092 310.039551,154.354645 310.092346,143.002197 
	C310.725189,144.151077 311.908173,145.298508 311.911163,146.449020 
	C312.010590,184.394562 312.071442,222.340729 311.900391,260.285736 
	C311.880280,264.743713 312.844208,266.790131 317.511139,268.194244 
	C328.886414,271.616791 335.921600,280.135773 340.717712,290.655762 
	C340.944885,291.154053 340.606201,291.910278 340.273163,292.770630 
z"/>
<path fill="#FDFDFC" opacity="1.000000" stroke="none" 
	d="
M292.091400,268.096924 
	C291.588043,268.379364 291.084717,268.661774 290.299500,268.793335 
	C290.344940,266.195587 290.954407,263.748993 290.957672,261.301636 
	C291.015350,218.208511 290.988159,175.115265 291.035156,132.022125 
	C291.037231,130.117691 291.570496,128.213852 292.311951,126.616287 
	C292.751831,173.265671 292.736115,219.608490 292.524292,266.168884 
	C292.249237,266.956604 292.170319,267.526794 292.091400,268.096924 
z"/>
<path fill="#3D58B2" opacity="1.000000" stroke="none" 
	d="
M193.579315,246.757141 
	C189.115021,246.054459 184.530426,244.191269 179.927734,244.145477 
	C152.189178,243.869461 124.446198,243.941315 96.705353,244.055008 
	C88.936852,244.086853 81.170540,244.652496 72.936874,244.937103 
	C75.723709,243.968994 78.971924,242.247528 82.230850,242.227005 
	C115.479568,242.017548 148.731415,241.943420 181.978149,242.266693 
	C185.815460,242.304001 189.627106,244.982529 193.579315,246.757141 
z"/>
<path fill="#3D58B2" opacity="1.000000" stroke="none" 
	d="
M69.682213,248.248657 
	C69.360275,252.716782 68.126480,257.257355 68.097191,261.805634 
	C67.917648,289.686462 67.955528,317.569275 68.057457,345.450897 
	C68.079147,351.384460 68.664673,357.315948 68.955406,363.686279 
	C67.969109,360.870789 66.212891,357.622681 66.191460,354.363190 
	C65.984032,322.802216 65.958138,291.238403 66.211990,259.678101 
	C66.242500,255.885513 68.240822,252.108749 69.682213,248.248657 
z"/>
<path fill="#15988A" opacity="1.000000" stroke="none" 
	d="
M190.191177,46.619370 
	C189.041458,46.745476 187.891800,46.981125 186.742004,46.981789 
	C150.358963,47.002865 113.975899,47.002708 77.592850,46.990253 
	C76.942215,46.990032 76.291656,46.801060 75.753639,46.338245 
	C78.783401,45.644894 81.699631,45.034710 84.617920,45.024632 
	C118.075798,44.909100 151.533981,44.884811 184.992096,44.836212 
	C185.712418,44.956955 186.432755,45.077694 187.701736,45.439457 
	C188.897324,45.993443 189.544250,46.306404 190.191177,46.619370 
z"/>
<path fill="#FDFDFC" opacity="1.000000" stroke="none" 
	d="
M184.881165,44.456337 
	C151.533981,44.884811 118.075798,44.909100 84.617920,45.024632 
	C81.699631,45.034710 78.783401,45.644894 75.445999,46.061111 
	C75.025772,46.145889 74.534760,46.074532 74.288437,46.104134 
	C76.728882,45.091141 79.410049,43.158199 82.103241,43.141304 
	C115.296753,42.933090 148.492035,42.995090 181.686752,43.049156 
	C182.715134,43.050831 183.742416,43.719013 184.881165,44.456337 
z"/>
<path fill="#3D58B2" opacity="1.000000" stroke="none" 
	d="
M80.248848,369.884583 
	C81.064384,369.201172 82.131714,368.077606 83.206413,368.070557 
	C99.845352,367.960907 116.485245,367.997375 133.124924,367.997406 
	C148.932602,367.997406 164.740417,367.965851 180.547806,368.033508 
	C182.269196,368.040894 183.988190,368.612946 185.832535,369.287018 
	C185.796478,369.729340 185.636169,369.807709 184.768585,369.940979 
	C149.710434,370.043945 115.359566,370.092010 81.008698,370.140045 
	C80.840492,370.081299 80.672279,370.022583 80.248848,369.884583 
z"/>
<path fill="#FBFBFA" opacity="1.000000" stroke="none" 
	d="
M301.900635,104.878220 
	C298.178497,103.522682 294.437988,101.807533 289.874512,100.054657 
	C259.030212,100.028847 229.008865,100.040756 198.987503,100.052666 
	C198.923904,99.594391 198.860306,99.136108 198.887436,98.337708 
	C227.972275,97.998299 256.966522,97.951508 285.960358,98.038261 
	C292.042114,98.056465 297.834839,99.268509 301.900635,104.878220 
z"/>
<path fill="#FDFDFC" opacity="1.000000" stroke="none" 
	d="
M81.116959,370.521912 
	C115.359566,370.092010 149.710434,370.043945 184.526093,370.054199 
	C183.667160,370.741272 182.345169,371.914795 181.019440,371.919006 
	C148.946182,372.021240 116.872498,372.010437 84.799011,371.952423 
	C83.607124,371.950287 82.416466,371.268738 81.116959,370.521912 
z"/>
<path fill="#FDFDFC" opacity="1.000000" stroke="none" 
	d="
M66.086708,58.979763 
	C66.038979,59.437191 65.991257,59.894619 65.965561,61.057251 
	C66.019974,62.498413 66.052361,63.234367 66.084747,63.970322 
	C66.035339,79.680649 65.985939,95.390984 65.965256,111.958389 
	C66.027649,113.865555 66.061310,114.915649 66.094971,115.965736 
	C66.046715,127.337982 65.998451,138.710236 65.967972,150.993805 
	C65.946182,154.602295 65.906616,157.299423 65.867058,159.996567 
	C65.245361,158.833298 64.084137,157.671661 64.080605,156.506516 
	C63.983810,124.619202 63.996830,92.731514 64.050705,60.843990 
	C64.052170,59.979942 64.707626,59.116997 65.438370,58.155396 
	C65.818619,58.057255 66.000160,58.078842 66.008224,58.274445 
	C66.039764,58.639954 66.063240,58.809860 66.086708,58.979763 
z"/>
<path fill="#FDFDFC" opacity="1.000000" stroke="none" 
	d="
M284.988892,117.301590 
	C283.284088,117.867622 281.581329,118.919456 279.874146,118.926712 
	C254.831467,119.033188 229.788101,119.034355 204.745239,118.953209 
	C201.957794,118.944183 199.859497,119.306725 199.054749,122.347092 
	C198.794418,120.451416 198.945068,118.735893 199.095703,117.020370 
	C199.095703,117.020370 199.017365,116.999710 199.362717,117.028404 
	C209.020081,117.061241 218.332153,117.043732 227.644073,117.074066 
	C246.759048,117.136337 265.873962,117.224243 284.988892,117.301590 
z"/>
<path fill="#00897B" opacity="1.000000" stroke="none" 
	d="
M292.720398,265.951324 
	C292.736115,219.608490 292.751831,173.265671 292.662537,126.465378 
	C292.504181,125.261772 292.450836,124.515640 292.388672,123.387604 
	C292.915009,124.435875 293.915161,125.865204 293.917755,127.296318 
	C293.999817,173.202545 293.987732,219.108963 293.967102,265.015350 
	C293.966736,265.821899 293.689789,266.628296 293.254028,267.364258 
	C292.884247,266.846283 292.802307,266.398804 292.720398,265.951324 
z"/>
<path fill="#15988A" opacity="1.000000" stroke="none" 
	d="
M310.015686,142.670776 
	C310.039551,154.354645 309.986786,165.707092 309.572021,177.525269 
	C308.815491,177.988800 308.420959,177.986618 308.026428,177.984421 
	C308.016479,162.322464 308.076355,146.659988 307.958557,130.998840 
	C307.917480,125.542130 307.437683,120.088722 307.514893,114.480446 
	C308.489563,116.592911 309.107574,118.858742 309.725586,121.124573 
	C309.778229,123.791420 309.830872,126.458275 309.896973,130.016418 
	C309.972015,134.270630 310.033600,137.633560 310.095184,140.996490 
	C310.043121,141.444107 309.991058,141.891724 310.015686,142.670776 
z"/>
<path fill="#F3F7F6" opacity="1.000000" stroke="none" 
	d="
M230.947723,315.203064 
	C229.103287,317.095703 226.557220,318.693756 225.605270,320.961090 
	C224.586975,323.386444 224.113327,326.880554 225.134995,329.116089 
	C226.504593,332.112946 229.960815,332.767944 233.330017,331.526428 
	C233.931061,331.304962 234.587173,331.232880 235.623306,331.095154 
	C234.025299,336.158997 230.012085,334.067993 226.862106,333.244171 
	C223.379822,332.333374 221.202347,326.896637 222.419174,323.360260 
	C223.109970,321.352631 224.132080,319.458954 225.459198,316.501862 
	C216.586380,316.983612 208.157776,317.441223 199.198730,317.577881 
	C198.726883,316.493805 198.785477,315.730713 198.844086,314.967590 
	C198.844070,314.967590 198.916031,315.033417 199.421600,314.996643 
	C210.267349,315.040955 220.607529,315.122009 230.947723,315.203064 
z"/>
<path fill="#FDFDFC" opacity="1.000000" stroke="none" 
	d="
M155.967194,206.583221 
	C151.110611,204.281509 146.830185,204.777542 143.138077,209.262253 
	C142.535172,209.994598 141.174652,210.103241 140.077362,209.831345 
	C139.959274,208.124954 139.928101,207.087341 139.896927,206.049744 
	C139.947937,195.698456 139.998932,185.347168 140.360901,174.459381 
	C141.113144,173.985275 141.554428,174.047653 141.995728,174.110031 
	C141.995728,184.740097 141.995728,195.370163 141.995728,206.457596 
	C146.861450,204.555222 151.488159,199.119156 155.967194,206.583221 
z"/>
<path fill="#15988A" opacity="1.000000" stroke="none" 
	d="
M72.003189,169.978714 
	C76.515656,170.652954 81.016212,171.793488 85.542946,171.909103 
	C96.628731,172.192200 107.727051,171.953033 118.819115,172.055298 
	C120.485771,172.070663 122.145912,172.792191 123.908646,173.590271 
	C124.008217,173.993484 124.039062,173.958923 123.586151,173.944092 
	C120.424438,173.993546 117.715630,174.057831 115.006821,174.122131 
	C107.976891,174.067200 100.946960,174.012283 93.126053,173.968994 
	C91.892677,174.026093 91.450294,174.071548 91.007904,174.117004 
	C87.312439,174.029037 83.616982,173.941086 79.131477,173.806702 
	C77.900276,173.868393 77.459122,173.976501 77.017960,174.084625 
	C77.017960,174.084625 76.561752,174.015167 76.236298,173.747467 
	C75.615585,173.371445 75.320328,173.263138 75.025078,173.154816 
	C75.025078,173.154816 74.565399,173.036148 74.236725,172.764267 
	C73.615082,172.387329 73.322121,172.282272 73.029160,172.177231 
	C72.718758,171.993576 72.408348,171.809921 72.045944,171.081299 
	C71.997032,170.350464 72.000114,170.164581 72.003189,169.978714 
z"/>
<path fill="#15988A" opacity="1.000000" stroke="none" 
	d="
M142.458923,174.031433 
	C141.554428,174.047653 141.113144,173.985275 140.344147,173.995178 
	C141.615433,173.380035 143.205261,172.122894 144.814896,172.097015 
	C155.741104,171.921326 166.672241,172.080200 177.600128,171.968048 
	C181.867569,171.924255 186.130707,171.459854 190.607285,171.537018 
	C190.359589,172.215103 189.900391,172.543213 189.441193,172.871307 
	C189.441193,172.871307 189.175903,172.793854 188.726166,172.900375 
	C187.181198,173.331650 186.085968,173.656403 184.990738,173.981140 
	C183.921906,173.986038 182.853058,173.990936 181.059998,173.996567 
	C179.892624,174.042435 179.449463,174.087555 179.006302,174.132690 
	C166.978241,174.072739 154.950180,174.012787 142.458923,174.031433 
z"/>
<path fill="#00897B" opacity="1.000000" stroke="none" 
	d="
M198.706726,117.143921 
	C198.945068,118.735893 198.794418,120.451416 198.750427,122.587891 
	C198.781891,124.068932 198.706665,125.129028 198.641510,126.988724 
	C198.722809,129.205658 198.794037,130.622986 198.865265,132.040329 
	C198.795135,133.740158 198.725006,135.440002 198.663589,137.966370 
	C198.738464,140.208771 198.804626,141.624649 198.870789,143.040512 
	C198.789673,145.393600 198.708557,147.746689 198.636261,150.956985 
	C197.796890,156.578629 196.948700,161.343079 196.100494,166.107513 
	C196.407486,151.285538 196.680725,136.462677 197.074081,121.642998 
	C197.113052,120.174515 197.885651,118.725517 198.706726,117.143921 
z"/>
<path fill="#2242AA" opacity="1.000000" stroke="none" 
	d="
M198.625946,298.578308 
	C198.108704,297.490265 197.097946,295.937805 197.075241,294.371033 
	C196.928818,284.266296 197.098709,274.157013 196.952881,264.052246 
	C196.884109,259.287354 196.345367,254.529236 196.033386,249.331146 
	C196.817719,252.031982 198.179596,255.155426 198.255814,258.309967 
	C198.576294,271.570679 198.512497,284.840668 198.625946,298.578308 
z"/>
<path fill="#00897B" opacity="1.000000" stroke="none" 
	d="
M285.327423,117.258057 
	C265.873962,117.224243 246.759048,117.136337 227.644073,117.074066 
	C218.332153,117.043732 209.020081,117.061241 199.353516,117.067848 
	C200.369995,116.719330 201.740295,116.049889 203.112152,116.046677 
	C229.676651,115.984497 256.241333,115.989433 282.805878,116.033531 
	C284.062073,116.035614 285.317505,116.527512 286.778625,117.181870 
	C286.544617,117.453133 286.105286,117.333824 285.327423,117.258057 
z"/>
<path fill="#2242AA" opacity="1.000000" stroke="none" 
	d="
M198.478989,315.122864 
	C198.785477,315.730713 198.726883,316.493805 198.776062,317.627808 
	C198.779434,328.335724 198.675034,338.672760 198.532272,349.838440 
	C198.345001,353.777740 198.196091,356.888367 198.047180,359.999023 
	C197.744186,360.478882 197.441193,360.958771 197.011322,361.693207 
	C196.917740,359.278412 196.976257,356.609100 196.979874,353.939697 
	C196.995102,342.714417 196.948380,331.488708 197.048447,320.264252 
	C197.063278,318.599182 197.742218,316.940033 198.478989,315.122864 
z"/>
<path fill="#15988A" opacity="1.000000" stroke="none" 
	d="
M124.026443,173.978088 
	C124.694641,174.933914 125.898285,175.898712 125.909599,176.877319 
	C126.033867,187.617294 125.985718,198.359482 125.922241,209.100708 
	C125.919014,209.648468 125.350288,210.192886 124.641617,210.511032 
	C124.144363,209.521957 124.050354,208.760712 123.956329,207.999451 
	C124.002563,202.306000 124.048790,196.612564 124.085434,190.062714 
	C124.023994,188.139145 123.972137,187.071976 123.920273,186.004791 
	C123.978333,185.249496 124.036392,184.494186 124.084808,182.921844 
	C124.063133,179.389511 124.051094,176.674225 124.039062,173.958923 
	C124.039062,173.958923 124.008217,173.993484 124.026443,173.978088 
z"/>
<path fill="#1C9A8E" opacity="1.000000" stroke="none" 
	d="
M280.052856,340.383118 
	C280.668549,340.142059 281.624207,339.919189 282.280304,340.264862 
	C292.141113,345.460327 302.606842,345.463776 313.699005,344.050507 
	C304.668671,348.615021 295.277679,346.966492 285.961884,343.602478 
	C283.965851,342.881714 282.151489,341.657837 280.052856,340.383118 
z"/>
<path fill="#3D58B2" opacity="1.000000" stroke="none" 
	d="
M230.623901,299.221191 
	C230.800964,299.846161 230.505569,300.930450 230.205719,300.931671 
	C220.240524,300.972687 210.274841,300.920044 200.309769,300.823608 
	C199.941467,300.820038 199.578735,300.239868 199.081741,299.552490 
	C209.349854,299.176208 219.749619,299.175903 230.623901,299.221191 
z"/>
<path fill="#1C9A8E" opacity="1.000000" stroke="none" 
	d="
M337.358429,324.936584 
	C338.066559,318.910400 339.249268,312.704498 339.934509,306.444092 
	C340.331940,302.813477 339.929474,299.095337 339.985992,295.094696 
	C340.333801,295.027863 340.582581,295.282898 340.945068,296.055237 
	C341.197388,297.118408 341.335999,297.664276 341.474609,298.210114 
	C341.632538,299.225189 341.790405,300.240234 341.981873,302.070435 
	C342.051361,305.255585 342.087311,307.625641 342.123260,309.995697 
	C341.939270,311.006073 341.755310,312.016449 341.393738,313.661530 
	C341.191254,314.862335 341.166412,315.428467 341.141541,315.994568 
	C340.994690,316.394226 340.847809,316.793915 340.468597,317.736511 
	C340.166290,318.852539 340.096344,319.425629 340.026398,319.998718 
	C339.225677,321.577148 338.424988,323.155548 337.358429,324.936584 
z"/>
<path fill="#15988A" opacity="1.000000" stroke="none" 
	d="
M267.703674,285.016724 
	C266.839630,288.457977 265.126221,291.986298 264.796021,295.639587 
	C264.200653,302.226501 264.393768,308.887970 264.348175,315.518921 
	C264.337067,317.130463 264.678345,318.744415 264.548859,320.590057 
	C263.964081,320.160126 263.688019,319.497375 263.411926,318.834656 
	C263.303741,318.422363 263.195526,318.010071 263.006073,317.013947 
	C262.714539,315.914520 262.504242,315.398895 262.293945,314.883301 
	C262.246094,314.456665 262.198242,314.029999 262.077698,312.840118 
	C261.959503,308.051025 261.914001,304.025146 261.868469,299.999298 
	C261.960602,299.568542 262.052704,299.137756 262.365784,298.094421 
	C263.790771,293.679565 264.994751,289.877258 266.198730,286.074951 
	C266.625061,285.769989 267.051422,285.465027 267.703674,285.016724 
z"/>
<path fill="#F3F7F6" opacity="1.000000" stroke="none" 
	d="
M261.529388,300.073364 
	C261.914001,304.025146 261.959503,308.051025 261.960999,312.538452 
	C260.796417,311.693420 259.675873,310.386810 258.203003,309.011475 
	C257.899628,308.197968 257.948547,307.453278 257.948273,306.027588 
	C257.571320,304.574982 257.243591,303.803314 256.915833,303.031647 
	C258.340668,302.070251 259.765472,301.108856 261.529388,300.073364 
z"/>
<path fill="#219C91" opacity="1.000000" stroke="none" 
	d="
M65.964752,160.342651 
	C65.906616,157.299423 65.946182,154.602295 66.038605,151.458588 
	C66.727310,152.135468 67.722122,153.195023 67.935379,154.393631 
	C68.754112,158.995407 69.322212,163.641769 69.970062,168.675476 
	C69.610214,168.775909 69.264107,168.472366 68.588966,167.698166 
	C67.631958,165.759125 67.003983,164.290710 66.375999,162.822311 
	C66.271484,162.111115 66.166969,161.399918 65.964752,160.342651 
z"/>
<path fill="#FDFDFC" opacity="1.000000" stroke="none" 
	d="
M123.608757,207.957779 
	C124.050354,208.760712 124.144363,209.521957 124.281799,210.665100 
	C122.856140,210.181992 121.441353,209.201874 119.905914,208.477524 
	C117.247116,207.223267 114.513557,206.127487 111.409348,204.914856 
	C113.571411,201.063080 116.371010,203.255753 118.987518,204.685593 
	C120.537628,205.532684 121.844780,206.824356 123.608757,207.957779 
z"/>
<path fill="#FDFDFC" opacity="1.000000" stroke="none" 
	d="
M123.586151,173.944092 
	C124.051094,176.674225 124.063133,179.389511 123.999733,182.550400 
	C123.105598,180.845444 122.286896,178.694901 121.286690,176.067581 
	C119.921799,175.789795 117.548447,175.306732 115.090958,174.472900 
	C117.715630,174.057831 120.424438,173.993546 123.586151,173.944092 
z"/>
<path fill="#FDFDFC" opacity="1.000000" stroke="none" 
	d="
M155.219269,218.929382 
	C157.032852,215.431046 157.757080,211.709747 156.241409,207.334503 
	C160.985596,209.839172 160.775955,214.931320 155.219269,218.929382 
z"/>
<path fill="#FBFBFA" opacity="1.000000" stroke="none" 
	d="
M310.034363,120.899773 
	C309.107574,118.858742 308.489563,116.592911 307.641479,114.055122 
	C307.411438,113.783165 307.287201,113.815804 307.252716,113.516670 
	C306.839447,112.639404 306.460663,112.061264 306.081848,111.483139 
	C305.400421,110.210922 304.718994,108.938713 303.922607,107.366020 
	C308.313904,109.668335 311.069000,115.405571 310.034363,120.899773 
z"/>
<path fill="#FDFDFC" opacity="1.000000" stroke="none" 
	d="
M196.079193,166.075439 
	C196.948700,161.343079 197.796890,156.578629 198.752548,151.384644 
	C201.394516,156.858337 200.373749,164.107224 196.145721,167.660004 
	C195.813553,167.448471 195.756866,166.980148 195.872620,166.748596 
	C196.035919,166.351120 196.083435,166.185211 196.130951,166.019318 
	C196.130951,166.019318 196.057877,166.043381 196.079193,166.075439 
z"/>
<path fill="#F3F7F6" opacity="1.000000" stroke="none" 
	d="
M198.401978,359.930786 
	C198.196091,356.888367 198.345001,353.777740 198.637024,350.292664 
	C200.364441,353.236755 202.799911,356.557251 198.401978,359.930786 
z"/>
<path fill="#FBFBFA" opacity="1.000000" stroke="none" 
	d="
M310.475647,140.894897 
	C310.033600,137.633560 309.972015,134.270630 309.985138,130.454758 
	C313.636200,133.354675 312.217865,137.076096 310.475647,140.894897 
z"/>
<path fill="#F3F7F6" opacity="1.000000" stroke="none" 
	d="
M265.829712,286.107727 
	C264.994751,289.877258 263.790771,293.679565 262.354065,297.763489 
	C263.234436,294.076904 264.347565,290.108704 265.829712,286.107727 
z"/>
<path fill="#F3F7F6" opacity="1.000000" stroke="none" 
	d="
M269.945618,330.608734 
	C272.282806,332.880890 274.619995,335.153015 277.079590,337.945343 
	C277.201965,338.465515 277.266693,338.900482 277.266693,338.900482 
	C274.556519,336.377075 271.846313,333.853668 269.351959,330.976959 
	C269.567810,330.623627 269.945618,330.608734 269.945618,330.608734 
z"/>
<path fill="#F3F7F6" opacity="1.000000" stroke="none" 
	d="
M276.898315,274.099731 
	C275.027527,276.733734 272.793701,279.367889 270.050964,282.121155 
	C269.542053,282.240326 269.123749,282.281616 269.123749,282.281616 
	C271.594238,279.554352 274.064758,276.827118 276.898315,274.099731 
z"/>
<path fill="#FBFBFA" opacity="1.000000" stroke="none" 
	d="
M199.284149,90.705460 
	C198.941467,84.643898 198.891083,78.283791 198.918549,71.460281 
	C199.189758,77.466896 199.383118,83.936913 199.284149,90.705460 
z"/>
<path fill="#FBFBFA" opacity="1.000000" stroke="none" 
	d="
M342.489319,309.899597 
	C342.087311,307.625641 342.051361,305.255585 342.074219,302.444885 
	C345.441467,304.319855 344.368317,307.041321 342.489319,309.899597 
z"/>
<path fill="#1C9A8E" opacity="1.000000" stroke="none" 
	d="
M314.417694,344.135864 
	C316.465759,342.811676 318.900085,341.449585 321.693420,340.050781 
	C319.636261,341.375336 317.220093,342.736664 314.417694,344.135864 
z"/>
<path fill="#FBFBFA" opacity="1.000000" stroke="none" 
	d="
M199.275085,62.728798 
	C198.691696,60.601101 198.388611,58.199520 198.088837,55.400726 
	C198.579895,57.487316 199.067642,59.971115 199.275085,62.728798 
z"/>
<path fill="#F3F7F6" opacity="1.000000" stroke="none" 
	d="
M284.933899,270.524292 
	C283.903442,271.209473 282.807098,271.573181 281.353821,271.893372 
	C281.630829,269.757935 282.253326,267.639099 284.933899,270.524292 
z"/>
<path fill="#FDFDFC" opacity="1.000000" stroke="none" 
	d="
M66.075562,163.020752 
	C67.003983,164.290710 67.631958,165.759125 68.410294,167.544708 
	C65.356842,167.679474 65.234848,165.648010 66.075562,163.020752 
z"/>
<path fill="#F3F7F6" opacity="1.000000" stroke="none" 
	d="
M263.122070,318.997192 
	C263.688019,319.497375 263.964081,320.160126 264.436981,321.016296 
	C264.633820,321.209747 264.740448,321.172150 264.750061,321.442871 
	C264.802765,322.143036 264.845856,322.572510 264.888916,323.001984 
	C264.203339,321.721252 263.517761,320.440491 263.122070,318.997192 
z"/>
<path fill="#3D58B2" opacity="1.000000" stroke="none" 
	d="
M236.126511,283.448273 
	C234.877670,283.104980 233.505112,282.457733 232.076645,281.475250 
	C233.348083,281.808105 234.675446,282.476196 236.126511,283.448273 
z"/>
<path fill="#FDFDFC" opacity="1.000000" stroke="none" 
	d="
M185.214233,174.243729 
	C186.085968,173.656403 187.181198,173.331650 188.637650,173.006500 
	C187.811829,173.506165 186.624786,174.006241 185.214233,174.243729 
z"/>
<path fill="#FDFDFC" opacity="1.000000" stroke="none" 
	d="
M123.585037,186.072800 
	C123.972137,187.071976 124.023994,188.139145 124.000000,189.601257 
	C121.339890,189.123749 121.425964,187.784256 123.585037,186.072800 
z"/>
<path fill="#FDFDFC" opacity="1.000000" stroke="none" 
	d="
M190.179398,46.667889 
	C189.544250,46.306404 188.897324,45.993443 188.065872,45.474350 
	C189.219757,45.655460 190.558182,46.042698 191.615753,46.702023 
	C190.913620,46.896725 190.492355,46.819340 190.071075,46.741959 
	C190.071075,46.741959 190.167618,46.716412 190.179398,46.667889 
z"/>
<path fill="#FDFDFC" opacity="1.000000" stroke="none" 
	d="
M73.961670,368.574554 
	C74.824394,368.643097 75.718307,369.051910 76.829529,369.677124 
	C76.028847,369.567261 75.010857,369.241028 73.961670,368.574554 
z"/>
<path fill="#F3F7F6" opacity="1.000000" stroke="none" 
	d="
M242.506531,325.024719 
	C242.935333,324.155884 243.714813,323.263855 244.768082,322.252533 
	C244.313644,323.089355 243.585419,324.045410 242.506531,325.024719 
z"/>
<path fill="#FDFDFC" opacity="1.000000" stroke="none" 
	d="
M66.622040,54.042702 
	C66.695465,54.776039 66.484146,55.547199 66.095993,56.571556 
	C66.058548,55.910011 66.197922,54.995270 66.622040,54.042702 
z"/>
<path fill="#FDFDFC" opacity="1.000000" stroke="none" 
	d="
M199.158295,142.814041 
	C198.804626,141.624649 198.738464,140.208771 198.777298,138.378540 
	C199.070129,139.505295 199.257965,141.046432 199.158295,142.814041 
z"/>
<path fill="#3D58B2" opacity="1.000000" stroke="none" 
	d="
M256.702362,302.972321 
	C257.243591,303.803314 257.571320,304.574982 257.871033,305.662170 
	C257.232269,305.138824 256.621552,304.299957 256.046387,303.099304 
	C256.081940,302.737549 256.488892,302.912994 256.702362,302.972321 
z"/>
<path fill="#FDFDFC" opacity="1.000000" stroke="none" 
	d="
M199.154129,131.814102 
	C198.794037,130.622986 198.722809,129.205658 198.758194,127.373512 
	C199.057526,128.501755 199.250259,130.044815 199.154129,131.814102 
z"/>
<path fill="#15988A" opacity="1.000000" stroke="none" 
	d="
M265.931854,324.319611 
	C266.525146,324.868347 267.161835,325.684296 267.501099,326.674438 
	C266.844666,326.451019 266.485657,326.053436 266.126648,325.655853 
	C266.076202,325.299530 266.025757,324.943176 265.931854,324.319611 
z"/>
<path fill="#F3F7F6" opacity="1.000000" stroke="none" 
	d="
M266.097900,326.039246 
	C266.485657,326.053436 266.844666,326.451019 267.405396,327.037170 
	C267.607117,327.225769 267.717529,327.189392 267.742371,327.456238 
	C267.870636,328.139954 267.974030,328.556824 268.077393,328.973724 
	C267.407990,328.123352 266.738586,327.273010 266.097900,326.039246 
z"/>
<path fill="#1C9A8E" opacity="1.000000" stroke="none" 
	d="
M277.549622,338.987183 
	C277.266693,338.900482 277.201965,338.465515 277.246460,338.250183 
	C278.167358,338.519775 279.043762,339.004700 279.909973,339.830261 
	C279.210693,339.805206 278.521637,339.439545 277.549622,338.987183 
z"/>
<path fill="#FDFDFC" opacity="1.000000" stroke="none" 
	d="
M189.851105,172.895691 
	C189.900391,172.543213 190.359589,172.215103 191.020508,171.679962 
	C191.222229,171.472931 191.209625,171.354935 191.475342,171.288818 
	C192.139496,171.089661 192.537933,170.956635 192.936386,170.823624 
	C192.044601,171.522446 191.152802,172.221268 189.851105,172.895691 
z"/>
<path fill="#3D58B2" opacity="1.000000" stroke="none" 
	d="
M70.982468,366.423615 
	C71.834084,366.479370 72.848824,366.817657 73.954758,367.492371 
	C73.079170,367.454620 72.112373,367.080383 70.982468,366.423615 
z"/>
<path fill="#FBFBFA" opacity="1.000000" stroke="none" 
	d="
M341.759735,298.072327 
	C341.335999,297.664276 341.197388,297.118408 341.088470,296.288269 
	C341.427063,296.647522 341.735962,297.291016 341.759735,298.072327 
z"/>
<path fill="#FBFBFA" opacity="1.000000" stroke="none" 
	d="
M341.446930,315.939301 
	C341.166412,315.428467 341.191254,314.862335 341.351624,314.045044 
	C341.575500,314.490570 341.663910,315.187317 341.446930,315.939301 
z"/>
<path fill="#F3F7F6" opacity="1.000000" stroke="none" 
	d="
M262.037140,315.028564 
	C262.504242,315.398895 262.714539,315.914520 262.889832,316.715576 
	C262.496704,316.391937 262.138519,315.782867 262.037140,315.028564 
z"/>
<path fill="#FBFBFA" opacity="1.000000" stroke="none" 
	d="
M340.335602,319.953247 
	C340.096344,319.425629 340.166290,318.852539 340.416504,318.051971 
	C340.612762,318.518921 340.628784,319.213348 340.335602,319.953247 
z"/>
<path fill="#FDFDFC" opacity="1.000000" stroke="none" 
	d="
M287.021362,118.373856 
	C287.574615,118.178993 288.172485,118.270958 288.902466,118.643814 
	C288.378387,118.836693 287.722168,118.748695 287.021362,118.373856 
z"/>
<path fill="#FDFDFC" opacity="1.000000" stroke="none" 
	d="
M179.049957,174.412766 
	C179.449463,174.087555 179.892624,174.042435 180.664856,174.063980 
	C180.677490,174.611496 180.361038,175.092331 180.044571,175.573166 
	C179.727585,175.279724 179.410599,174.986282 179.049957,174.412766 
z"/>
<path fill="#FDFDFC" opacity="1.000000" stroke="none" 
	d="
M91.050507,174.398560 
	C91.450294,174.071548 91.892677,174.026093 92.663071,174.050262 
	C92.674896,174.603058 92.358727,175.086243 92.042557,175.569412 
	C91.726067,175.272980 91.409584,174.976562 91.050507,174.398560 
z"/>
<path fill="#3D58B2" opacity="1.000000" stroke="none" 
	d="
M196.082855,248.607574 
	C195.493286,248.546509 194.823166,248.194656 194.043152,247.549103 
	C194.622955,247.609192 195.312622,247.962997 196.082855,248.607574 
z"/>
<path fill="#219C91" opacity="1.000000" stroke="none" 
	d="
M134.309631,237.886032 
	C134.571106,237.326874 135.125687,236.773758 135.995392,236.369110 
	C135.741257,236.975754 135.171982,237.433914 134.309631,237.886032 
z"/>
<path fill="#15988A" opacity="1.000000" stroke="none" 
	d="
M195.756866,166.980148 
	C195.756866,166.980148 195.813553,167.448471 195.768936,167.680084 
	C195.333817,168.245804 194.943329,168.579910 194.315521,169.025101 
	C194.228668,168.531921 194.379120,167.927643 194.974091,167.146774 
	C195.418625,166.970169 195.756866,166.980148 195.756866,166.980148 
z"/>
<path fill="#219C91" opacity="1.000000" stroke="none" 
	d="
M71.830582,169.727081 
	C72.000114,170.164581 71.997032,170.350464 71.975456,170.814545 
	C71.366539,170.583740 70.776115,170.074768 70.053940,169.304474 
	C70.500778,169.187256 71.079369,169.331360 71.830582,169.727081 
z"/>
<path fill="#15988A" opacity="1.000000" stroke="none" 
	d="
M265.044006,323.205811 
	C264.845856,322.572510 264.802765,322.143036 264.757751,321.386841 
	C265.160980,321.833862 265.566101,322.607544 265.956329,323.745239 
	C265.693970,323.876038 265.446533,323.642853 265.044006,323.205811 
z"/>
<path fill="#1C9A8E" opacity="1.000000" stroke="none" 
	d="
M335.536346,328.082550 
	C335.415894,327.809692 335.510223,327.419159 335.864685,327.050476 
	C336.093384,327.408844 335.968781,327.706360 335.536346,328.082550 
z"/>
<path fill="#15988A" opacity="1.000000" stroke="none" 
	d="
M268.272430,329.034485 
	C267.974030,328.556824 267.870636,328.139954 267.754639,327.399414 
	C268.133270,327.563812 268.524536,328.051880 268.885315,328.882507 
	C268.854828,329.225098 268.467468,329.095276 268.272430,329.034485 
z"/>
<path fill="#1C9A8E" opacity="1.000000" stroke="none" 
	d="
M336.312714,326.934570 
	C336.240479,326.518311 336.412994,325.916382 336.877930,325.174683 
	C336.966064,325.606232 336.761780,326.177551 336.312714,326.934570 
z"/>
<path fill="#15988A" opacity="1.000000" stroke="none" 
	d="
M269.906616,330.342255 
	C269.945618,330.608734 269.567810,330.623627 269.379333,330.608704 
	C269.090210,330.260345 268.989532,329.926849 268.833008,329.336609 
	C269.140656,329.411835 269.504150,329.743805 269.906616,330.342255 
z"/>
<path fill="#219C91" opacity="1.000000" stroke="none" 
	d="
M136.599426,236.361679 
	C136.684631,235.940674 137.067123,235.503815 137.779785,235.065460 
	C137.705536,235.491272 137.301117,235.918533 136.599426,236.361679 
z"/>
<path fill="#219C91" opacity="1.000000" stroke="none" 
	d="
M150.569397,222.336136 
	C150.660873,221.924957 151.050049,221.495453 151.764481,221.046387 
	C151.682190,221.457169 151.274643,221.887482 150.569397,222.336136 
z"/>
<path fill="#FDFDFC" opacity="1.000000" stroke="none" 
	d="
M77.176498,174.293610 
	C77.459122,173.976501 77.900276,173.868393 78.673813,173.864410 
	C78.449142,174.146561 77.892090,174.324570 77.176498,174.293610 
z"/>
<path fill="#15988A" opacity="1.000000" stroke="none" 
	d="
M192.963715,170.628937 
	C192.537933,170.956635 192.139496,171.089661 191.426575,171.254990 
	C191.561371,170.878891 192.010635,170.470474 192.792587,170.063416 
	C193.125290,170.064758 192.991028,170.434265 192.963715,170.628937 
z"/>
<path fill="#15988A" opacity="1.000000" stroke="none" 
	d="
M190.210892,47.063503 
	C190.492355,46.819340 190.913620,46.896725 191.649475,47.042549 
	C191.964050,47.110985 192.082077,47.537819 192.193619,47.729118 
	C191.653671,47.741962 191.002197,47.563503 190.210892,47.063503 
z"/>
<path fill="#219C91" opacity="1.000000" stroke="none" 
	d="
M138.332001,234.966431 
	C138.280457,234.528473 138.496429,233.947021 139.041077,233.329971 
	C139.112991,233.803909 138.856247,234.313416 138.332001,234.966431 
z"/>
<path fill="#3D58B2" opacity="1.000000" stroke="none" 
	d="
M247.988007,294.685913 
	C247.550522,294.743744 246.957306,294.532043 246.311691,293.990997 
	C246.783615,293.913208 247.307953,294.164764 247.988007,294.685913 
z"/>
<path fill="#15988A" opacity="1.000000" stroke="none" 
	d="
M269.065765,282.551270 
	C269.123749,282.281616 269.542053,282.240326 269.745239,282.293945 
	C269.724274,282.819824 269.500122,283.292084 269.003174,283.822876 
	C268.822845,283.527924 268.915314,283.174408 269.065765,282.551270 
z"/>
<path fill="#219C91" opacity="1.000000" stroke="none" 
	d="
M149.562698,223.280426 
	C149.414780,222.968765 149.563065,222.635681 150.003464,222.273239 
	C150.150024,222.582260 150.004456,222.920639 149.562698,223.280426 
z"/>
<path fill="#219C91" opacity="1.000000" stroke="none" 
	d="
M145.563782,227.283295 
	C145.413773,226.969299 145.562225,226.636520 146.002274,226.273438 
	C146.149994,226.583572 146.006119,226.924042 145.563782,227.283295 
z"/>
<path fill="#3D58B2" opacity="1.000000" stroke="none" 
	d="
M237.269348,284.450134 
	C236.930801,284.599701 236.598175,284.432709 236.225067,283.968140 
	C236.548141,283.824921 236.911697,283.979248 237.269348,284.450134 
z"/>
<path fill="#3D58B2" opacity="1.000000" stroke="none" 
	d="
M240.282822,287.433716 
	C239.950104,287.596222 239.620026,287.451202 239.261993,287.016846 
	C239.584518,286.860443 239.934998,286.993317 240.282822,287.433716 
z"/>
<path fill="#3D58B2" opacity="1.000000" stroke="none" 
	d="
M239.282974,286.432312 
	C238.950165,286.595886 238.620041,286.451660 238.261917,286.018250 
	C238.584488,285.860901 238.935059,285.992706 239.282974,286.432312 
z"/>
<path fill="#219C91" opacity="1.000000" stroke="none" 
	d="
M146.565948,226.284149 
	C146.415283,225.968689 146.563171,225.636032 147.002686,225.273743 
	C147.151047,225.585068 147.007767,225.926010 146.565948,226.284149 
z"/>
<path fill="#219C91" opacity="1.000000" stroke="none" 
	d="
M147.564255,225.283188 
	C147.415085,224.967758 147.563843,224.635315 148.004227,224.272400 
	C148.151306,224.583328 148.006744,224.924759 147.564255,225.283188 
z"/>
<path fill="#219C91" opacity="1.000000" stroke="none" 
	d="
M148.560028,224.281265 
	C148.412354,223.968689 148.561569,223.635635 149.002670,223.272903 
	C149.148697,223.582397 149.002808,223.921600 148.560028,224.281265 
z"/>
<path fill="#FDFDFC" opacity="1.000000" stroke="none" 
	d="
M75.156128,173.347351 
	C75.320328,173.263138 75.615585,173.371445 76.006683,173.724701 
	C75.788612,173.906326 75.516823,173.763077 75.156128,173.347351 
z"/>
<path fill="#15988A" opacity="1.000000" stroke="none" 
	d="
M268.633667,283.877350 
	C268.740021,284.132416 268.564362,284.449158 268.128662,284.866608 
	C268.029602,284.624542 268.190582,284.281799 268.633667,283.877350 
z"/>
<path fill="#FDFDFC" opacity="1.000000" stroke="none" 
	d="
M69.874527,50.122387 
	C69.924072,50.339069 69.740570,50.650555 69.280884,50.969261 
	C69.216949,50.723385 69.429214,50.470287 69.874527,50.122387 
z"/>
<path fill="#3D58B2" opacity="1.000000" stroke="none" 
	d="
M238.284027,285.432556 
	C237.949188,285.594910 237.619064,285.450226 237.262680,285.015778 
	C237.587189,284.859192 237.937973,284.992371 238.284027,285.432556 
z"/>
<path fill="#FDFDFC" opacity="1.000000" stroke="none" 
	d="
M73.159912,172.365234 
	C73.322121,172.282272 73.615082,172.387329 74.001587,172.731750 
	C73.786667,172.909363 73.518517,172.770065 73.159912,172.365234 
z"/>
<path fill="#3D58B2" opacity="1.000000" stroke="none" 
	d="
M68.945969,364.312317 
	C69.162842,364.249054 69.462036,364.451141 69.836998,364.923279 
	C69.617943,364.988098 69.323120,364.782898 68.945969,364.312317 
z"/>
<path fill="#3D58B2" opacity="1.000000" stroke="none" 
	d="
M69.887634,365.360016 
	C70.112610,365.279114 70.433586,365.462006 70.839371,365.919037 
	C70.610657,366.003357 70.297157,365.813568 69.887634,365.360016 
z"/>
<path fill="#3D58B2" opacity="1.000000" stroke="none" 
	d="
M246.281754,293.425568 
	C245.950699,293.596680 245.620514,293.455170 245.259705,293.025787 
	C245.580246,292.862915 245.931442,292.987946 246.281754,293.425568 
z"/>
<path fill="#3D58B2" opacity="1.000000" stroke="none" 
	d="
M245.292114,292.434021 
	C244.941879,292.597565 244.615036,292.449951 244.263184,292.014038 
	C244.597275,291.858154 244.956390,291.990509 245.292114,292.434021 
z"/>
<path fill="#15988A" opacity="1.000000" stroke="none" 
	d="
M193.281708,170.019989 
	C193.226791,169.824661 193.425812,169.528534 193.879059,169.130646 
	C193.934082,169.325638 193.734863,169.622421 193.281708,170.019989 
z"/>
<path fill="#3D58B2" opacity="1.000000" stroke="none" 
	d="
M252.089005,298.695984 
	C251.911606,298.737579 251.590698,298.538391 251.158798,298.072021 
	C251.347046,298.021606 251.646271,298.238403 252.089005,298.695984 
z"/>
<path fill="#3D58B2" opacity="1.000000" stroke="none" 
	d="
M244.282410,291.428223 
	C243.950378,291.596741 243.620590,291.453735 243.260666,291.022583 
	C243.581909,290.861847 243.933289,290.989258 244.282410,291.428223 
z"/>
<path fill="#3D58B2" opacity="1.000000" stroke="none" 
	d="
M243.289001,290.428406 
	C242.944595,290.597687 242.616974,290.453064 242.261261,290.021088 
	C242.590714,289.860657 242.948257,289.987579 243.289001,290.428406 
z"/>
<path fill="#3D58B2" opacity="1.000000" stroke="none" 
	d="
M242.289429,289.428284 
	C241.945007,289.597412 241.617096,289.453003 241.261856,289.021027 
	C241.591660,288.860565 241.948807,288.987671 242.289429,289.428284 
z"/>
<path fill="#219C91" opacity="1.000000" stroke="none" 
	d="
M139.573593,233.288544 
	C139.421829,232.965607 139.568481,232.633652 140.006897,232.273132 
	C140.156448,232.589554 140.014221,232.934555 139.573593,233.288544 
z"/>
<path fill="#219C91" opacity="1.000000" stroke="none" 
	d="
M140.559769,232.280319 
	C140.412537,231.969299 140.561752,231.636017 141.003052,231.272202 
	C141.148819,231.580475 141.002518,231.919266 140.559769,232.280319 
z"/>
<path fill="#219C91" opacity="1.000000" stroke="none" 
	d="
M141.559937,231.279617 
	C141.412659,230.968643 141.562241,230.635864 142.003632,230.271790 
	C142.149246,230.579590 142.003021,230.918701 141.559937,231.279617 
z"/>
<path fill="#219C91" opacity="1.000000" stroke="none" 
	d="
M142.558624,230.280167 
	C142.411423,229.968613 142.561676,229.636002 143.003479,229.271454 
	C143.148727,229.579391 143.002411,229.919250 142.558624,230.280167 
z"/>
<path fill="#3D58B2" opacity="1.000000" stroke="none" 
	d="
M241.289856,288.433014 
	C240.944672,288.596405 240.616608,288.449890 240.262878,288.014587 
	C240.593796,287.858276 240.950378,287.990662 241.289856,288.433014 
z"/>
<path fill="#219C91" opacity="1.000000" stroke="none" 
	d="
M143.558640,229.280487 
	C143.411316,228.968872 143.561584,228.636246 144.003403,228.271545 
	C144.148712,228.579483 144.002472,228.919464 143.558640,229.280487 
z"/>
<path fill="#219C91" opacity="1.000000" stroke="none" 
	d="
M144.560059,228.281403 
	C144.411713,227.969467 144.561356,227.636688 145.002563,227.272507 
	C145.148758,227.580933 145.003403,227.920761 144.560059,228.281403 
z"/>
<path fill="#F6F6F4" opacity="1.000000" stroke="none" 
	d="
M318.951508,290.683746 
	C319.914703,291.938599 320.877899,293.193481 322.003235,295.127991 
	C322.792419,300.472260 323.943207,305.144867 323.872040,309.798798 
	C323.819977,313.201538 322.160767,316.579712 321.217957,319.968872 
	C315.649292,325.937622 309.269287,331.179993 300.811462,330.710358 
	C296.136810,330.450806 291.619202,327.362915 286.770172,324.987762 
	C286.064087,324.181519 285.618622,323.937531 285.173187,323.693542 
	C285.173187,323.693542 285.082153,323.820038 285.129120,323.536499 
	C284.822418,323.098663 284.468750,322.944427 284.115082,322.790161 
	C284.115082,322.790161 284.110168,322.926208 284.201752,322.588501 
	C283.879852,321.769989 283.466339,321.289215 283.052826,320.808441 
	C283.074432,320.524597 282.987305,320.279419 282.448425,319.640259 
	C277.296814,310.835236 279.020508,302.426971 281.966949,294.011993 
	C282.158569,293.678741 282.350189,293.345520 283.087830,292.786011 
	C284.214844,291.737488 284.795837,290.915283 285.376862,290.093048 
	C285.873749,289.703217 286.370636,289.313416 287.283386,288.547180 
	C287.830414,287.791748 287.961578,287.412720 288.092712,287.033722 
	C288.092712,287.033722 288.015503,287.198395 288.429932,287.266724 
	C289.949066,286.596039 291.053772,285.856995 292.158508,285.117950 
	C292.158508,285.117950 292.046082,285.106720 292.453674,285.096436 
	C300.582489,281.844879 307.888123,282.991455 314.906219,287.174011 
	C314.906219,287.174011 314.936005,287.092773 315.057556,287.364807 
	C315.741943,287.848175 316.304718,288.059570 316.867523,288.270935 
	C316.867523,288.270935 316.916748,288.144012 316.838867,288.460266 
	C317.133789,288.923248 317.506653,289.069977 317.879486,289.216705 
	C317.879486,289.216705 317.785950,289.086395 317.744324,289.415955 
	C318.118988,290.058228 318.535248,290.371002 318.951508,290.683746 
z"/>
<path fill="#F3F7F6" opacity="1.000000" stroke="none" 
	d="
M122.062019,157.121796 
	C114.664742,157.065460 107.267471,157.009125 98.945099,156.998413 
	C93.676109,157.024155 89.332230,157.004303 84.988342,156.984451 
	C84.354263,156.382050 83.720184,155.779648 82.783363,154.617004 
	C82.403328,129.006042 82.304688,103.955338 82.266884,78.904541 
	C82.259392,73.937485 82.485382,68.970070 82.603699,64.002823 
	C83.255585,63.400047 83.907463,62.797272 85.255676,62.076607 
	C116.959450,61.931015 147.966904,61.903316 178.974350,61.875618 
	C179.732330,62.505344 180.490311,63.135071 181.578217,64.271439 
	C181.973221,65.511551 182.038300,66.245018 182.103378,66.978477 
	C182.056396,67.434029 182.009415,67.889587 181.987335,69.148590 
	C181.953201,98.289513 181.894165,126.626976 181.835144,154.964447 
	C181.310242,155.449997 180.785339,155.935547 179.875381,156.663879 
	C168.347137,156.977493 157.203979,157.048325 146.060806,157.119156 
	C142.992355,157.063354 139.923889,157.007553 136.177734,157.003067 
	C135.500015,157.054367 135.050446,157.118759 135.050446,157.118759 
	C132.643005,157.063187 130.235580,157.007614 126.978401,156.998138 
	C124.773117,157.070099 123.417564,157.095947 122.062019,157.121796 
M99.505676,155.000732 
	C108.259109,155.000687 117.012543,155.000626 125.765976,155.000626 
	C139.090164,155.000610 152.414337,155.004089 165.738525,154.997849 
	C168.569244,154.996521 171.414337,155.132126 174.227142,154.897324 
	C178.045731,154.578552 180.212082,153.325989 180.151093,148.452728 
	C179.830200,122.807693 180.001801,97.156509 180.000458,71.507462 
	C180.000092,64.412415 179.997330,64.417114 172.805099,64.961021 
	C172.143906,65.011024 171.473862,64.964729 170.808792,64.939682 
	C162.606735,64.630798 154.403397,64.032341 146.203262,64.074234 
	C134.751175,64.132729 123.303085,64.750259 111.850243,64.969200 
	C105.026627,65.099655 98.167641,65.304634 91.378906,64.776924 
	C84.994553,64.280647 85.007065,63.876713 85.003609,70.342545 
	C84.993538,89.162949 85.072044,107.983765 84.966896,126.803581 
	C84.920555,135.097839 84.390388,143.390518 84.419678,151.682709 
	C84.423576,152.786652 86.341896,154.692001 87.537285,154.832352 
	C91.152222,155.256744 94.847702,154.995132 99.505676,155.000732 
z"/>
<path fill="#15988A" opacity="1.000000" stroke="none" 
	d="
M178.877686,61.490692 
	C147.966904,61.903316 116.959450,61.931015 85.484940,61.938110 
	C86.164124,61.283039 87.308495,60.098415 88.456886,60.094509 
	C117.704918,59.995018 146.953400,60.009884 176.201675,60.067123 
	C177.062134,60.068806 177.921280,60.744389 178.877686,61.490692 
z"/>
<path fill="#1C9A8E" opacity="1.000000" stroke="none" 
	d="
M199.090515,100.442749 
	C229.008865,100.040756 259.030212,100.028847 289.513123,100.093170 
	C288.640076,100.777199 287.307465,101.910271 285.970581,101.915321 
	C258.387054,102.019585 230.803040,102.011803 203.219284,101.947372 
	C201.876511,101.944237 200.535400,101.220833 199.090515,100.442749 
z"/>
<path fill="#219C91" opacity="1.000000" stroke="none" 
	d="
M308.015808,178.454559 
	C308.420959,177.986618 308.815491,177.988800 309.506165,177.988861 
	C309.874542,204.188126 309.945312,230.389542 310.020569,256.590942 
	C310.031525,260.405518 310.064087,264.220001 310.128479,268.499207 
	C309.447632,266.949371 308.105499,264.937897 308.095642,262.919891 
	C307.958557,234.922012 308.004181,206.923248 308.015808,178.454559 
z"/>
<path fill="#15988A" opacity="1.000000" stroke="none" 
	d="
M182.209778,154.813477 
	C181.894165,126.626976 181.953201,98.289513 182.057251,69.486717 
	C182.728409,70.337860 183.895142,71.652023 183.900742,72.971115 
	C184.009964,98.694122 184.007401,124.417763 183.925491,150.140961 
	C183.920685,151.649536 183.051407,153.155380 182.209778,154.813477 
z"/>
<path fill="#00897B" opacity="1.000000" stroke="none" 
	d="
M82.215790,64.212051 
	C82.485382,68.970070 82.259392,73.937485 82.266884,78.904541 
	C82.304688,103.955338 82.403328,129.006042 82.535843,154.525543 
	C82.067520,153.555832 81.092163,152.118896 81.087311,150.678665 
	C80.994690,123.183868 81.005531,95.688683 81.048691,68.193649 
	C81.050667,66.935791 81.556641,65.678719 82.215790,64.212051 
z"/>
<path fill="#1C9A8E" opacity="1.000000" stroke="none" 
	d="
M321.556030,319.891937 
	C322.160767,316.579712 323.819977,313.201538 323.872040,309.798798 
	C323.943207,305.144867 322.792419,300.472260 322.191650,295.419678 
	C323.301636,297.004852 324.902924,298.862640 325.373505,300.972565 
	C326.865387,307.662262 325.989471,314.077362 321.556030,319.891937 
z"/>
<path fill="#15988A" opacity="1.000000" stroke="none" 
	d="
M281.647766,294.168457 
	C279.020508,302.426971 277.296814,310.835236 282.264160,319.562744 
	C281.586304,319.213898 280.304779,318.670868 279.982697,317.780701 
	C277.095581,309.801575 276.222900,301.872559 281.647766,294.168457 
z"/>
<path fill="#15988A" opacity="1.000000" stroke="none" 
	d="
M314.903351,286.806152 
	C307.888123,282.991455 300.582489,281.844879 292.462402,285.152222 
	C297.095612,279.978882 308.760071,280.601990 314.903351,286.806152 
z"/>
<path fill="#00897B" opacity="1.000000" stroke="none" 
	d="
M146.359055,157.403046 
	C157.203979,157.048325 168.347137,156.977493 180.001221,156.916977 
	C179.278442,157.288132 178.044174,157.962646 176.811203,157.960251 
	C166.759766,157.940643 156.708572,157.794556 146.359055,157.403046 
z"/>
<path fill="#00897B" opacity="1.000000" stroke="none" 
	d="
M85.271667,157.289627 
	C89.332230,157.004303 93.676109,157.024155 98.479095,157.082230 
	C94.477127,157.278580 90.016068,157.436691 85.271667,157.289627 
z"/>
<path fill="#15988A" opacity="1.000000" stroke="none" 
	d="
M291.787292,285.079102 
	C291.053772,285.856995 289.949066,286.596039 288.509399,287.310883 
	C289.255035,286.537872 290.335571,285.789062 291.787292,285.079102 
z"/>
<path fill="#15988A" opacity="1.000000" stroke="none" 
	d="
M285.023743,290.089752 
	C284.795837,290.915283 284.214844,291.737488 283.340454,292.628662 
	C283.588257,291.827209 284.129425,290.956818 285.023743,290.089752 
z"/>
<path fill="#00897B" opacity="1.000000" stroke="none" 
	d="
M122.287170,157.377838 
	C123.417564,157.095947 124.773117,157.070099 126.533928,157.081680 
	C125.463570,157.290680 123.987946,157.462265 122.287170,157.377838 
z"/>
<path fill="#15988A" opacity="1.000000" stroke="none" 
	d="
M182.408691,66.947815 
	C182.038300,66.245018 181.973221,65.511551 181.839432,64.416183 
	C182.085159,65.008568 182.399582,65.962852 182.408691,66.947815 
z"/>
<path fill="#15988A" opacity="1.000000" stroke="none" 
	d="
M66.348694,115.759010 
	C66.061310,114.915649 66.027649,113.865555 66.041183,112.423729 
	C66.259727,113.205421 66.431076,114.378853 66.348694,115.759010 
z"/>
<path fill="#00897B" opacity="1.000000" stroke="none" 
	d="
M139.645065,206.247711 
	C139.928101,207.087341 139.959274,208.124954 139.921585,209.546173 
	C139.699554,208.768417 139.546387,207.607056 139.645065,206.247711 
z"/>
<path fill="#15988A" opacity="1.000000" stroke="none" 
	d="
M66.330933,63.794815 
	C66.052361,63.234367 66.019974,62.498413 66.036362,61.396645 
	C66.249130,61.893658 66.413124,62.756485 66.330933,63.794815 
z"/>
<path fill="#15988A" opacity="1.000000" stroke="none" 
	d="
M285.207886,323.968079 
	C285.618622,323.937531 286.064087,324.181519 286.568481,324.685425 
	C286.165802,324.711090 285.704224,324.476837 285.207886,323.968079 
z"/>
<path fill="#15988A" opacity="1.000000" stroke="none" 
	d="
M283.054810,321.143494 
	C283.466339,321.289215 283.879852,321.769989 284.268250,322.573914 
	C283.847687,322.424225 283.452271,321.951416 283.054810,321.143494 
z"/>
<path fill="#15988A" opacity="1.000000" stroke="none" 
	d="
M306.081360,111.857910 
	C306.460663,112.061264 306.839447,112.639404 307.230194,113.576797 
	C306.855072,113.368263 306.467987,112.800476 306.081360,111.857910 
z"/>
<path fill="#15988A" opacity="1.000000" stroke="none" 
	d="
M316.763580,287.957733 
	C316.304718,288.059570 315.741943,287.848175 315.014313,287.363770 
	C315.452881,287.275360 316.056244,287.459930 316.763580,287.957733 
z"/>
<path fill="#B7D8D3" opacity="1.000000" stroke="none" 
	d="
M292.524292,266.168884 
	C292.802307,266.398804 292.884247,266.846283 292.936768,267.638763 
	C292.907349,267.983765 292.493164,267.995941 292.292297,268.046448 
	C292.170319,267.526794 292.249237,266.956604 292.524292,266.168884 
z"/>
<path fill="#15988A" opacity="1.000000" stroke="none" 
	d="
M318.912781,290.404358 
	C318.535248,290.371002 318.118988,290.058228 317.688171,289.473206 
	C318.073761,289.508911 318.473907,289.816956 318.912781,290.404358 
z"/>
<path fill="#00897B" opacity="1.000000" stroke="none" 
	d="
M135.119446,157.283554 
	C135.050446,157.118759 135.500015,157.054367 135.724823,157.086258 
	C135.695923,157.228226 135.442184,157.338287 135.119446,157.283554 
z"/>
<path fill="#219C91" opacity="1.000000" stroke="none" 
	d="
M66.246490,58.897575 
	C66.063240,58.809860 66.039764,58.639954 66.082741,58.221504 
	C66.295860,58.151516 66.462067,58.318832 66.575661,58.516396 
	C66.604706,58.566902 66.467247,58.713135 66.246490,58.897575 
z"/>
<path fill="#00897B" opacity="1.000000" stroke="none" 
	d="
M195.872620,166.748596 
	C195.756866,166.980148 195.418625,166.970169 195.251099,166.983643 
	C195.272446,166.729370 195.461334,166.461655 195.890579,166.106628 
	C196.083435,166.185211 196.035919,166.351120 195.872620,166.748596 
z"/>
<path fill="#15988A" opacity="1.000000" stroke="none" 
	d="
M287.824280,287.192078 
	C287.961578,287.412720 287.830414,287.791748 287.386108,288.329346 
	C287.233948,288.108765 287.394897,287.729614 287.824280,287.192078 
z"/>
<path fill="#15988A" opacity="1.000000" stroke="none" 
	d="
M317.806274,288.942780 
	C317.506653,289.069977 317.133789,288.923248 316.770996,288.454895 
	C317.098389,288.311798 317.415741,288.490326 317.806274,288.942780 
z"/>
<path fill="#15988A" opacity="1.000000" stroke="none" 
	d="
M284.192413,323.063538 
	C284.468750,322.944427 284.822418,323.098663 285.200745,323.567078 
	C284.906891,323.699799 284.588318,323.518341 284.192413,323.063538 
z"/>
<path fill="#EEEFF3" opacity="1.000000" stroke="none" 
	d="
M182.130341,304.935120 
	C182.084076,313.661896 182.037811,322.388672 182.034637,331.970581 
	C182.101913,333.868744 182.126114,334.911804 182.150330,335.954865 
	C182.089798,340.669800 182.029251,345.384705 181.938828,350.795654 
	C181.908951,351.491638 181.744125,351.950989 181.744125,351.950989 
	C181.251831,352.326965 180.759537,352.702911 179.679504,353.427368 
	C177.436050,353.814331 175.780411,353.882202 174.124603,353.886932 
	C144.110474,353.972321 114.096329,354.050110 84.082184,354.129517 
	C83.509552,353.261658 82.936920,352.393768 82.260345,350.800293 
	C82.148010,332.820831 82.094788,315.566803 82.146255,298.313080 
	C82.183350,285.881622 82.359917,273.450562 82.474266,261.019318 
	C83.164467,260.322845 83.854668,259.626404 84.879456,258.896606 
	C85.214050,258.863251 85.000549,258.999237 84.949448,259.385193 
	C84.931755,263.020905 84.992264,266.270599 84.994049,269.520325 
	C85.003677,287.005768 84.998550,304.491241 84.998856,321.976685 
	C84.998993,330.303101 84.866798,338.633728 85.132477,346.951691 
	C85.176353,348.325287 86.835663,350.672363 87.967537,350.813599 
	C93.707062,351.529755 99.516106,351.889374 105.305878,351.960571 
	C117.588066,352.111694 129.873413,352.015991 142.157440,352.003967 
	C152.426605,351.993896 162.705994,352.203003 172.958084,351.772797 
	C175.705368,351.657471 180.188934,352.172150 180.015961,346.873535 
	C179.904404,343.456360 180.005600,340.032410 180.005753,336.611481 
	C180.006851,312.797943 180.061646,288.984100 179.911087,265.171509 
	C179.897781,263.067871 178.540634,260.972717 178.059509,258.752686 
	C178.869675,258.619598 179.427979,258.607452 179.986282,258.595306 
	C180.328918,259.028625 180.671570,259.461975 181.316574,260.233459 
	C181.732742,260.721191 181.846542,260.870789 181.960327,261.020355 
	C181.963043,264.063080 181.965744,267.105835 182.015656,270.824249 
	C182.062881,271.499939 182.124893,271.949310 182.124908,271.949310 
	C182.072464,273.372467 182.020035,274.795654 182.008575,277.068665 
	C182.074738,279.924835 182.099945,281.931152 182.125168,283.937439 
	C182.073990,284.411346 182.022812,284.885284 182.011520,286.173401 
	C182.077728,292.970093 182.104034,298.952606 182.130341,304.935120 
z"/>
<path fill="#2242AA" opacity="1.000000" stroke="none" 
	d="
M179.780884,258.208130 
	C179.427979,258.607452 178.869675,258.619598 177.869720,258.679810 
	C177.428055,258.727936 177.046951,258.869720 176.668182,258.730927 
	C171.844345,258.689484 167.399277,258.786835 162.510941,258.797668 
	C159.060379,258.764008 156.053116,258.816833 152.809387,258.742096 
	C151.699432,258.701843 150.825912,258.789185 149.494339,258.783783 
	C141.705536,258.752838 134.374817,258.814667 126.770470,258.752625 
	C125.315102,258.711060 124.133339,258.793427 122.496384,258.782593 
	C117.375679,258.751404 112.710159,258.813477 107.699692,258.740845 
	C102.554916,258.699371 97.755096,258.792603 92.519585,258.798523 
	C89.722778,258.807190 87.361664,258.903198 85.000549,258.999237 
	C85.000549,258.999237 85.214050,258.863251 85.172462,258.743713 
	C86.334946,258.087219 87.537613,257.085083 88.743294,257.081451 
	C117.931900,256.993347 147.120850,257.003021 176.309662,257.045166 
	C177.398636,257.046722 178.486908,257.550934 179.780884,258.208130 
z"/>
<path fill="#1030A2" opacity="1.000000" stroke="none" 
	d="
M84.379044,354.411865 
	C114.096329,354.050110 144.110474,353.972321 174.124603,353.886932 
	C175.780411,353.882202 177.436050,353.814331 179.538452,353.617920 
	C178.713974,353.969635 177.443802,354.921143 176.171463,354.924103 
	C145.992615,354.993164 115.813507,354.960999 85.634460,354.935486 
	C85.314873,354.935211 84.995415,354.778107 84.379044,354.411865 
z"/>
<path fill="#1030A2" opacity="1.000000" stroke="none" 
	d="
M82.096786,261.235107 
	C82.359917,273.450562 82.183350,285.881622 82.146255,298.313080 
	C82.094788,315.566803 82.148010,332.820831 82.078018,350.537964 
	C81.674896,349.779724 81.069038,348.558716 81.066742,347.336609 
	C81.014938,319.811554 81.021423,292.286377 81.060417,264.761230 
	C81.061981,263.657471 81.489998,262.554321 82.096786,261.235107 
z"/>
<path fill="#3D58B2" opacity="1.000000" stroke="none" 
	d="
M230.873077,314.792419 
	C220.607529,315.122009 210.267349,315.040955 199.457672,314.963867 
	C199.779175,314.316864 200.562637,313.110626 201.362289,313.099792 
	C210.561325,312.975220 219.763077,313.006409 228.963074,313.098145 
	C229.579086,313.104309 230.186859,313.934753 230.873077,314.792419 
z"/>
<path fill="#2242AA" opacity="1.000000" stroke="none" 
	d="
M182.410614,304.634888 
	C182.104034,298.952606 182.077728,292.970093 182.087677,286.524780 
	C182.312927,292.152893 182.501907,298.243774 182.410614,304.634888 
z"/>
<path fill="#2242AA" opacity="1.000000" stroke="none" 
	d="
M182.475891,335.901031 
	C182.126114,334.911804 182.101913,333.868744 182.115860,332.435944 
	C182.369827,333.313202 182.585648,334.580200 182.475891,335.901031 
z"/>
<path fill="#2242AA" opacity="1.000000" stroke="none" 
	d="
M182.389923,283.679901 
	C182.099945,281.931152 182.074738,279.924835 182.086441,277.489990 
	C182.300476,279.181732 182.477585,281.302063 182.389923,283.679901 
z"/>
<path fill="#2242AA" opacity="1.000000" stroke="none" 
	d="
M182.133820,260.882568 
	C181.846542,260.870789 181.732742,260.721191 181.521515,260.306396 
	C181.718491,260.275696 182.012894,260.510223 182.133820,260.882568 
z"/>
<path fill="#2242AA" opacity="1.000000" stroke="none" 
	d="
M182.289917,271.880493 
	C182.124893,271.949310 182.062881,271.499939 182.093414,271.275208 
	C182.234283,271.304199 182.344604,271.557922 182.289917,271.880493 
z"/>
<path fill="#2242AA" opacity="1.000000" stroke="none" 
	d="
M181.945007,351.899139 
	C181.744125,351.950989 181.908951,351.491638 181.990295,351.261597 
	C182.213409,351.234283 182.355179,351.437073 182.496948,351.639832 
	C182.379913,351.708984 182.262894,351.778137 181.945007,351.899139 
z"/>
<path fill="#F7F6F4" opacity="1.000000" stroke="none" 
	d="
M99.008728,155.000793 
	C94.847702,154.995132 91.152222,155.256744 87.537285,154.832352 
	C86.341896,154.692001 84.423576,152.786652 84.419678,151.682709 
	C84.390388,143.390518 84.920555,135.097839 84.966896,126.803581 
	C85.072044,107.983765 84.993538,89.162949 85.003609,70.342545 
	C85.007065,63.876713 84.994553,64.280647 91.378906,64.776924 
	C98.167641,65.304634 105.026627,65.099655 111.850243,64.969200 
	C123.303085,64.750259 134.751175,64.132729 146.203262,64.074234 
	C154.403397,64.032341 162.606735,64.630798 170.808792,64.939682 
	C171.473862,64.964729 172.143906,65.011024 172.805099,64.961021 
	C179.997330,64.417114 180.000092,64.412415 180.000458,71.507462 
	C180.001801,97.156509 179.830200,122.807693 180.151093,148.452728 
	C180.212082,153.325989 178.045731,154.578552 174.227142,154.897324 
	C171.414337,155.132126 168.569244,154.996521 165.738525,154.997849 
	C152.414337,155.004089 139.090164,155.000610 125.765976,155.000626 
	C117.012543,155.000626 108.259109,155.000687 99.008728,155.000793 
z"/>
<path fill="#F7F6F4" opacity="1.000000" stroke="none" 
	d="
M153.045837,258.869690 
	C156.053116,258.816833 159.060379,258.764008 162.799133,259.103821 
	C168.036057,259.287567 172.541504,259.078644 177.046951,258.869720 
	C177.046951,258.869720 177.428055,258.727936 177.617859,258.800781 
	C178.540634,260.972717 179.897781,263.067871 179.911087,265.171509 
	C180.061646,288.984100 180.006851,312.797943 180.005753,336.611481 
	C180.005600,340.032410 179.904404,343.456360 180.015961,346.873535 
	C180.188934,352.172150 175.705368,351.657471 172.958084,351.772797 
	C162.705994,352.203003 152.426605,351.993896 142.157440,352.003967 
	C129.873413,352.015991 117.588066,352.111694 105.305878,351.960571 
	C99.516106,351.889374 93.707062,351.529755 87.967537,350.813599 
	C86.835663,350.672363 85.176353,348.325287 85.132477,346.951691 
	C84.866798,338.633728 84.998993,330.303101 84.998856,321.976685 
	C84.998550,304.491241 85.003677,287.005768 84.994049,269.520325 
	C84.992264,266.270599 84.931755,263.020905 84.949448,259.385193 
	C87.361664,258.903198 89.722778,258.807190 92.808578,259.105103 
	C98.370392,259.291199 103.207520,259.083374 108.044640,258.875549 
	C112.710159,258.813477 117.375679,258.751404 122.710281,259.057739 
	C124.600937,259.242920 125.822510,259.059723 127.044083,258.876495 
	C134.374817,258.814667 141.705536,258.752838 149.683594,259.047668 
	C151.235886,259.226074 152.140854,259.047882 153.045837,258.869690 
z"/>
<path fill="#EEEFF3" opacity="1.000000" stroke="none" 
	d="
M107.699692,258.740845 
	C103.207520,259.083374 98.370392,259.291199 93.244278,259.192444 
	C97.755096,258.792603 102.554916,258.699371 107.699692,258.740845 
z"/>
<path fill="#EEEFF3" opacity="1.000000" stroke="none" 
	d="
M176.668182,258.730927 
	C172.541504,259.078644 168.036057,259.287567 163.242416,259.190338 
	C167.399277,258.786835 171.844345,258.689484 176.668182,258.730927 
z"/>
<path fill="#EEEFF3" opacity="1.000000" stroke="none" 
	d="
M126.770470,258.752625 
	C125.822510,259.059723 124.600937,259.242920 123.165466,259.150970 
	C124.133339,258.793427 125.315102,258.711060 126.770470,258.752625 
z"/>
<path fill="#EEEFF3" opacity="1.000000" stroke="none" 
	d="
M152.809387,258.742096 
	C152.140854,259.047882 151.235886,259.226074 150.141663,259.140411 
	C150.825912,258.789185 151.699432,258.701843 152.809387,258.742096 
z"/>
</svg>